<svg xmlns="http://www.w3.org/2000/svg" xmlns:xlink="http://www.w3.org/1999/xlink" width="45" zoomAndPan="magnify" viewBox="0 0 33.75 33.749999" height="45" preserveAspectRatio="xMidYMid meet" version="1.0"><defs><clipPath id="16feb522f9"><path d="M 1.988281 11.480469 L 8 11.480469 L 8 33.5 L 1.988281 33.5 Z M 1.988281 11.480469 " clip-rule="nonzero"/></clipPath><clipPath id="fe64695b71"><path d="M 9.65625 18 L 16 18 L 16 33.5 L 9.65625 33.5 Z M 9.65625 18 " clip-rule="nonzero"/></clipPath><clipPath id="463f7f6473"><path d="M 17.320312 21.429688 L 24 21.429688 L 24 33.5 L 17.320312 33.5 Z M 17.320312 21.429688 " clip-rule="nonzero"/></clipPath><clipPath id="ddf73e1a52"><path d="M 25 25.253906 L 31.800781 25.253906 L 31.800781 33.5 L 25 33.5 Z M 25 25.253906 " clip-rule="nonzero"/></clipPath><clipPath id="8e1ba430b9"><path d="M 2 3.0625 L 31.800781 3.0625 L 31.800781 23.722656 L 2 23.722656 Z M 2 3.0625 " clip-rule="nonzero"/></clipPath></defs><path fill="#ffffff" d="M 22.140625 1.757812 L 22.140625 2.898438 C 20.800781 3.292969 20.035156 4.695312 20.425781 6.03125 C 20.617188 6.679688 21.066406 7.230469 21.667969 7.546875 L 23.238281 8.378906 C 23.792969 8.671875 24.003906 9.355469 23.710938 9.90625 C 23.417969 10.460938 22.730469 10.667969 22.179688 10.378906 C 21.894531 10.226562 21.6875 9.964844 21.609375 9.652344 L 20.199219 9.652344 C 20.316406 10.71875 21.09375 11.59375 22.140625 11.835938 L 22.140625 12.941406 L 23.5625 12.941406 L 23.5625 11.75 C 24.875 11.28125 25.558594 9.839844 25.085938 8.527344 C 24.875 7.9375 24.449219 7.445312 23.894531 7.152344 L 22.375 6.347656 C 21.808594 6.082031 21.558594 5.414062 21.820312 4.847656 C 22.082031 4.277344 22.757812 4.03125 23.324219 4.292969 C 23.632812 4.4375 23.867188 4.714844 23.949219 5.046875 L 25.359375 5.046875 C 25.25 4.03125 24.542969 3.1875 23.5625 2.898438 L 23.5625 1.757812 Z M 21.585938 1.207031 L 24.109375 1.207031 L 24.109375 2.519531 C 25.308594 3.054688 26.03125 4.292969 25.917969 5.597656 L 23.363281 5.597656 C 23.515625 5.3125 23.40625 4.960938 23.125 4.808594 C 22.839844 4.65625 22.492188 4.765625 22.339844 5.046875 C 22.183594 5.332031 22.292969 5.679688 22.574219 5.832031 C 22.589844 5.839844 22.601562 5.847656 22.617188 5.851562 L 24.148438 6.667969 C 25.652344 7.460938 26.222656 9.320312 25.425781 10.820312 C 25.132812 11.375 24.671875 11.828125 24.113281 12.109375 L 24.113281 13.492188 L 21.585938 13.492188 L 21.585938 12.238281 C 20.3125 11.742188 19.523438 10.464844 19.644531 9.101562 L 22.195312 9.101562 C 22.042969 9.386719 22.148438 9.738281 22.429688 9.890625 C 22.714844 10.042969 23.066406 9.9375 23.21875 9.652344 C 23.371094 9.371094 23.265625 9.019531 22.980469 8.867188 L 21.40625 8.03125 C 19.90625 7.238281 19.335938 5.378906 20.132812 3.878906 C 20.453125 3.28125 20.964844 2.796875 21.585938 2.519531 Z M 22.773438 0.00390625 C 18.757812 0.09375 15.554688 3.386719 15.582031 7.398438 C 15.53125 11.457031 18.789062 14.789062 22.855469 14.835938 C 26.921875 14.882812 30.257812 11.632812 30.304688 7.574219 C 30.308594 7.515625 30.308594 7.457031 30.304688 7.398438 C 30.332031 3.339844 27.058594 0.0273438 22.988281 0 C 22.917969 0 22.84375 0 22.773438 0.00390625 " fill-opacity="1" fill-rule="nonzero"/><g clip-path="url(#16feb522f9)"><path fill="#ffffff" d="M 2.539062 12.421875 L 7.363281 12.421875 L 7.363281 33.167969 L 2.539062 33.167969 Z M 2.363281 11.871094 C 2.15625 11.871094 1.988281 12.039062 1.988281 12.246094 L 1.988281 33.34375 C 1.988281 33.554688 2.15625 33.722656 2.363281 33.71875 L 7.539062 33.71875 C 7.746094 33.722656 7.914062 33.554688 7.914062 33.34375 L 7.914062 12.246094 C 7.914062 12.039062 7.746094 11.871094 7.539062 11.871094 L 2.363281 11.871094 " fill-opacity="1" fill-rule="nonzero"/></g><g clip-path="url(#fe64695b71)"><path fill="#ffffff" d="M 10.453125 18.59375 L 15.273438 18.59375 L 15.273438 33.167969 L 10.453125 33.167969 Z M 10.253906 18.042969 C 10.054688 18.054688 9.902344 18.222656 9.902344 18.417969 L 9.902344 33.34375 C 9.902344 33.550781 10.070312 33.71875 10.277344 33.71875 L 15.449219 33.71875 C 15.65625 33.71875 15.824219 33.550781 15.824219 33.34375 L 15.824219 18.417969 C 15.824219 18.210938 15.65625 18.042969 15.449219 18.042969 L 10.277344 18.042969 C 10.269531 18.042969 10.261719 18.042969 10.253906 18.042969 " fill-opacity="1" fill-rule="nonzero"/></g><g clip-path="url(#463f7f6473)"><path fill="#ffffff" d="M 18.363281 22.507812 L 23.1875 22.507812 L 23.1875 33.167969 L 18.363281 33.167969 Z M 18.1875 21.957031 C 17.980469 21.957031 17.816406 22.125 17.8125 22.332031 L 17.8125 33.34375 C 17.816406 33.550781 17.980469 33.71875 18.1875 33.71875 L 23.363281 33.71875 C 23.570312 33.71875 23.738281 33.550781 23.738281 33.34375 L 23.738281 22.332031 C 23.738281 22.125 23.570312 21.957031 23.363281 21.957031 L 18.1875 21.957031 " fill-opacity="1" fill-rule="nonzero"/></g><g clip-path="url(#ddf73e1a52)"><path fill="#ffffff" d="M 26.277344 25.902344 L 31.097656 25.902344 L 31.097656 33.167969 L 26.277344 33.167969 Z M 26.105469 25.351562 C 25.894531 25.351562 25.726562 25.519531 25.726562 25.722656 L 25.726562 33.34375 C 25.726562 33.554688 25.894531 33.71875 26.101562 33.71875 L 31.277344 33.71875 C 31.480469 33.71875 31.648438 33.554688 31.648438 33.34375 L 31.648438 25.722656 C 31.648438 25.519531 31.480469 25.351562 31.277344 25.351562 L 26.105469 25.351562 " fill-opacity="1" fill-rule="nonzero"/></g><g clip-path="url(#8e1ba430b9)"><path fill="#ffffff" d="M 27.058594 21.085938 L 26.800781 23.140625 C 26.78125 23.265625 26.871094 23.375 26.992188 23.390625 C 27.027344 23.394531 27.058594 23.394531 27.089844 23.378906 L 31.644531 21.902344 C 31.761719 21.863281 31.828125 21.738281 31.789062 21.621094 C 31.773438 21.585938 31.75 21.546875 31.722656 21.519531 L 27.789062 18.054688 C 27.695312 17.972656 27.550781 17.984375 27.46875 18.078125 C 27.441406 18.109375 27.421875 18.152344 27.417969 18.195312 L 27.171875 20.183594 C 17.582031 17.367188 9.15625 11.5625 3.117188 3.617188 C 2.964844 3.421875 2.683594 3.382812 2.488281 3.535156 C 2.292969 3.6875 2.253906 3.964844 2.398438 4.160156 C 8.582031 12.296875 17.230469 18.234375 27.058594 21.085938 " fill-opacity="1" fill-rule="nonzero"/></g></svg>