<svg xmlns="http://www.w3.org/2000/svg" xmlns:xlink="http://www.w3.org/1999/xlink" width="40" zoomAndPan="magnify" viewBox="0 0 30 30.000001" height="40" preserveAspectRatio="xMidYMid meet" version="1.0"><defs><clipPath id="f8b4ad0b31"><path d="M 0.484375 0 L 29.515625 0 L 29.515625 29.03125 L 0.484375 29.03125 Z M 0.484375 0 " clip-rule="nonzero"/></clipPath></defs><path fill="#3366a9" d="M 3.988281 11.640625 L 7.101562 13.4375 C 7.394531 13.605469 7.707031 13.6875 8.046875 13.6875 C 8.386719 13.6875 8.699219 13.605469 8.992188 13.4375 L 12.105469 11.640625 C 12.398438 11.46875 12.628906 11.238281 12.796875 10.945312 C 12.964844 10.652344 13.050781 10.339844 13.050781 10 L 13.050781 6.410156 C 13.050781 6.070312 12.964844 5.753906 12.796875 5.460938 C 12.628906 5.171875 12.398438 4.9375 12.105469 4.769531 L 8.992188 2.972656 C 8.699219 2.804688 8.386719 2.722656 8.046875 2.722656 C 7.710938 2.722656 7.394531 2.804688 7.101562 2.972656 L 3.988281 4.769531 C 3.699219 4.9375 3.464844 5.171875 3.296875 5.460938 C 3.128906 5.753906 3.042969 6.070312 3.042969 6.410156 L 3.042969 10 C 3.042969 10.339844 3.128906 10.652344 3.296875 10.945312 C 3.46875 11.238281 3.699219 11.472656 3.988281 11.640625 Z M 4.304688 6.410156 C 4.304688 6.167969 4.410156 5.984375 4.621094 5.863281 L 7.730469 4.066406 C 7.828125 4.011719 7.933594 3.980469 8.046875 3.980469 C 8.160156 3.980469 8.265625 4.011719 8.363281 4.066406 L 11.472656 5.863281 C 11.683594 5.984375 11.789062 6.167969 11.789062 6.410156 L 11.789062 10 C 11.789062 10.242188 11.683594 10.425781 11.472656 10.546875 L 8.363281 12.34375 C 8.152344 12.464844 7.941406 12.464844 7.730469 12.34375 L 4.621094 10.546875 C 4.410156 10.425781 4.304688 10.242188 4.304688 10 Z M 4.304688 6.410156 " fill-opacity="1" fill-rule="nonzero"/><path fill="#3366a9" d="M 8.046875 10.730469 C 8.382812 10.730469 8.703125 10.664062 9.011719 10.539062 C 9.324219 10.410156 9.59375 10.226562 9.832031 9.988281 C 10.070312 9.753906 10.25 9.480469 10.378906 9.171875 C 10.507812 8.863281 10.570312 8.539062 10.570312 8.203125 C 10.570312 7.871094 10.507812 7.546875 10.378906 7.238281 C 10.25 6.929688 10.070312 6.65625 9.832031 6.417969 C 9.59375 6.183594 9.324219 6 9.011719 5.871094 C 8.703125 5.746094 8.382812 5.679688 8.046875 5.679688 C 7.710938 5.679688 7.390625 5.746094 7.082031 5.871094 C 6.773438 6 6.5 6.183594 6.261719 6.417969 C 6.023438 6.65625 5.84375 6.929688 5.714844 7.238281 C 5.585938 7.546875 5.523438 7.871094 5.523438 8.203125 C 5.523438 8.539062 5.585938 8.863281 5.714844 9.171875 C 5.84375 9.480469 6.027344 9.753906 6.261719 9.988281 C 6.5 10.226562 6.773438 10.40625 7.082031 10.535156 C 7.390625 10.664062 7.710938 10.730469 8.046875 10.730469 Z M 8.046875 6.941406 C 8.214844 6.941406 8.375 6.972656 8.53125 7.039062 C 8.683594 7.101562 8.820312 7.195312 8.941406 7.3125 C 9.058594 7.429688 9.148438 7.566406 9.214844 7.722656 C 9.277344 7.875 9.308594 8.039062 9.308594 8.203125 C 9.308594 8.371094 9.277344 8.53125 9.214844 8.6875 C 9.148438 8.84375 9.058594 8.980469 8.941406 9.097656 C 8.820312 9.214844 8.683594 9.308594 8.53125 9.371094 C 8.375 9.433594 8.214844 9.46875 8.046875 9.46875 C 7.878906 9.46875 7.71875 9.433594 7.5625 9.371094 C 7.410156 9.308594 7.273438 9.214844 7.15625 9.097656 C 7.035156 8.980469 6.945312 8.84375 6.878906 8.6875 C 6.816406 8.53125 6.785156 8.371094 6.785156 8.203125 C 6.785156 8.039062 6.816406 7.875 6.882812 7.722656 C 6.945312 7.566406 7.035156 7.429688 7.15625 7.3125 C 7.273438 7.195312 7.410156 7.101562 7.5625 7.039062 C 7.71875 6.976562 7.878906 6.941406 8.046875 6.941406 Z M 8.046875 6.941406 " fill-opacity="1" fill-rule="nonzero"/><g clip-path="url(#f8b4ad0b31)"><path fill="#3366a9" d="M 27.621094 0 L 2.378906 0 C 2.125 0 1.886719 0.046875 1.652344 0.144531 C 1.421875 0.242188 1.214844 0.378906 1.039062 0.554688 C 0.863281 0.734375 0.726562 0.9375 0.628906 1.167969 C 0.53125 1.402344 0.484375 1.640625 0.484375 1.894531 L 0.484375 19.566406 C 0.484375 19.816406 0.53125 20.058594 0.628906 20.289062 C 0.726562 20.519531 0.863281 20.726562 1.039062 20.902344 C 1.214844 21.082031 1.421875 21.21875 1.652344 21.3125 C 1.886719 21.410156 2.125 21.457031 2.378906 21.457031 L 10.582031 21.457031 L 10.582031 24.613281 L 10.378906 24.613281 C 10.121094 24.613281 9.882812 24.683594 9.667969 24.832031 C 9.457031 24.976562 9.300781 25.167969 9.207031 25.40625 L 8.449219 27.300781 C 8.371094 27.496094 8.34375 27.695312 8.367188 27.90625 C 8.386719 28.113281 8.457031 28.304688 8.574219 28.476562 C 8.691406 28.652344 8.84375 28.785156 9.03125 28.886719 C 9.214844 28.984375 9.410156 29.03125 9.621094 29.03125 L 20.378906 29.03125 C 20.589844 29.03125 20.785156 28.984375 20.972656 28.886719 C 21.15625 28.785156 21.308594 28.652344 21.425781 28.476562 C 21.542969 28.304688 21.613281 28.113281 21.632812 27.90625 C 21.65625 27.699219 21.628906 27.496094 21.550781 27.300781 L 20.792969 25.40625 C 20.699219 25.167969 20.542969 24.976562 20.332031 24.832031 C 20.117188 24.683594 19.878906 24.613281 19.621094 24.613281 L 19.417969 24.613281 L 19.417969 21.457031 L 27.621094 21.457031 C 27.875 21.457031 28.113281 21.410156 28.347656 21.3125 C 28.578125 21.21875 28.785156 21.082031 28.960938 20.902344 C 29.136719 20.726562 29.273438 20.519531 29.371094 20.289062 C 29.46875 20.058594 29.515625 19.816406 29.515625 19.566406 L 29.515625 1.894531 C 29.515625 1.640625 29.46875 1.402344 29.371094 1.167969 C 29.273438 0.9375 29.136719 0.734375 28.960938 0.554688 C 28.785156 0.378906 28.578125 0.242188 28.347656 0.144531 C 28.113281 0.046875 27.875 0 27.621094 0 Z M 2.378906 1.261719 L 27.621094 1.261719 C 27.796875 1.261719 27.945312 1.324219 28.070312 1.445312 C 28.191406 1.570312 28.253906 1.71875 28.253906 1.894531 L 28.253906 17.671875 L 1.746094 17.671875 L 1.746094 1.894531 C 1.746094 1.71875 1.808594 1.570312 1.929688 1.449219 C 2.054688 1.324219 2.203125 1.261719 2.378906 1.261719 Z M 20.378906 27.769531 L 9.621094 27.769531 L 10.378906 25.875 L 19.621094 25.875 Z M 18.15625 24.613281 L 11.84375 24.613281 L 11.84375 21.457031 L 18.15625 21.457031 Z M 27.621094 20.195312 L 2.378906 20.195312 C 2.203125 20.195312 2.054688 20.132812 1.929688 20.011719 C 1.808594 19.886719 1.746094 19.738281 1.746094 19.566406 L 1.746094 18.933594 L 28.253906 18.933594 L 28.253906 19.566406 C 28.253906 19.738281 28.191406 19.886719 28.070312 20.011719 C 27.945312 20.132812 27.796875 20.195312 27.621094 20.195312 Z M 27.621094 20.195312 " fill-opacity="1" fill-rule="nonzero"/></g><path fill="#3366a9" d="M 21.941406 8.835938 L 21.941406 15.148438 L 20.679688 15.148438 L 20.679688 10.097656 C 20.679688 9.929688 20.648438 9.769531 20.582031 9.617188 C 20.519531 9.460938 20.429688 9.324219 20.308594 9.207031 C 20.191406 9.085938 20.054688 8.996094 19.902344 8.933594 C 19.746094 8.867188 19.585938 8.835938 19.417969 8.835938 L 16.894531 8.835938 C 16.726562 8.835938 16.566406 8.867188 16.410156 8.933594 C 16.257812 8.996094 16.121094 9.085938 16 9.207031 C 15.882812 9.324219 15.792969 9.460938 15.726562 9.617188 C 15.664062 9.769531 15.632812 9.929688 15.632812 10.097656 L 15.632812 15.148438 C 15.632812 15.316406 15.664062 15.476562 15.726562 15.628906 C 15.792969 15.785156 15.882812 15.921875 16 16.039062 C 16.121094 16.15625 16.257812 16.25 16.410156 16.3125 C 16.566406 16.378906 16.726562 16.410156 16.894531 16.410156 L 25.730469 16.410156 C 25.898438 16.410156 26.058594 16.378906 26.210938 16.3125 C 26.367188 16.25 26.503906 16.15625 26.621094 16.039062 C 26.738281 15.921875 26.832031 15.785156 26.894531 15.628906 C 26.960938 15.476562 26.992188 15.316406 26.992188 15.148438 L 26.992188 8.835938 C 26.992188 8.667969 26.960938 8.507812 26.894531 8.351562 C 26.832031 8.199219 26.738281 8.0625 26.621094 7.945312 C 26.503906 7.824219 26.367188 7.734375 26.210938 7.671875 C 26.058594 7.605469 25.898438 7.574219 25.730469 7.574219 L 23.203125 7.574219 C 23.039062 7.574219 22.875 7.605469 22.722656 7.671875 C 22.566406 7.734375 22.429688 7.824219 22.3125 7.945312 C 22.195312 8.0625 22.101562 8.199219 22.039062 8.351562 C 21.976562 8.507812 21.941406 8.667969 21.941406 8.835938 Z M 16.894531 15.148438 L 16.894531 10.097656 L 19.417969 10.097656 L 19.417969 15.148438 Z M 23.203125 8.835938 L 25.730469 8.835938 L 25.730469 15.148438 L 23.203125 15.148438 Z M 23.203125 8.835938 " fill-opacity="1" fill-rule="nonzero"/><path fill="#3366a9" d="M 3.628906 16.410156 L 12.464844 16.410156 C 12.640625 16.410156 12.789062 16.347656 12.910156 16.226562 C 13.035156 16.101562 13.097656 15.953125 13.097656 15.777344 C 13.097656 15.605469 13.035156 15.457031 12.910156 15.332031 C 12.789062 15.207031 12.640625 15.148438 12.464844 15.148438 L 3.628906 15.148438 C 3.453125 15.148438 3.304688 15.207031 3.183594 15.332031 C 3.058594 15.457031 2.996094 15.605469 2.996094 15.777344 C 2.996094 15.953125 3.058594 16.101562 3.183594 16.226562 C 3.304688 16.347656 3.453125 16.410156 3.628906 16.410156 Z M 3.628906 16.410156 " fill-opacity="1" fill-rule="nonzero"/><path fill="#3366a9" d="M 15.621094 3.785156 L 17.515625 3.785156 C 17.6875 3.785156 17.835938 3.726562 17.960938 3.601562 C 18.082031 3.480469 18.144531 3.328125 18.144531 3.15625 C 18.144531 2.980469 18.082031 2.832031 17.960938 2.710938 C 17.835938 2.585938 17.6875 2.523438 17.515625 2.523438 L 15.621094 2.523438 C 15.445312 2.523438 15.296875 2.585938 15.175781 2.710938 C 15.050781 2.832031 14.988281 2.980469 14.988281 3.15625 C 14.988281 3.328125 15.050781 3.480469 15.175781 3.601562 C 15.296875 3.726562 15.445312 3.785156 15.621094 3.785156 Z M 15.621094 3.785156 " fill-opacity="1" fill-rule="nonzero"/><path fill="#3366a9" d="M 20.039062 3.785156 L 21.933594 3.785156 C 22.105469 3.785156 22.253906 3.726562 22.378906 3.601562 C 22.5 3.480469 22.5625 3.328125 22.5625 3.15625 C 22.5625 2.980469 22.5 2.832031 22.378906 2.710938 C 22.253906 2.585938 22.105469 2.523438 21.933594 2.523438 L 20.039062 2.523438 C 19.863281 2.523438 19.714844 2.585938 19.59375 2.710938 C 19.46875 2.832031 19.40625 2.980469 19.40625 3.15625 C 19.40625 3.328125 19.46875 3.480469 19.59375 3.601562 C 19.714844 3.726562 19.863281 3.785156 20.039062 3.785156 Z M 20.039062 3.785156 " fill-opacity="1" fill-rule="nonzero"/><path fill="#3366a9" d="M 24.457031 3.785156 L 26.351562 3.785156 C 26.523438 3.785156 26.671875 3.726562 26.796875 3.601562 C 26.917969 3.480469 26.980469 3.328125 26.980469 3.15625 C 26.980469 2.980469 26.917969 2.832031 26.796875 2.710938 C 26.671875 2.585938 26.523438 2.523438 26.351562 2.523438 L 24.457031 2.523438 C 24.28125 2.523438 24.132812 2.585938 24.011719 2.710938 C 23.886719 2.832031 23.824219 2.980469 23.824219 3.15625 C 23.824219 3.328125 23.886719 3.480469 24.011719 3.601562 C 24.132812 3.726562 24.28125 3.785156 24.457031 3.785156 Z M 24.457031 3.785156 " fill-opacity="1" fill-rule="nonzero"/><path fill="#3366a9" d="M 20.039062 6.3125 L 21.933594 6.3125 C 22.105469 6.3125 22.253906 6.25 22.378906 6.125 C 22.5 6.003906 22.5625 5.855469 22.5625 5.679688 C 22.5625 5.507812 22.5 5.355469 22.378906 5.234375 C 22.253906 5.109375 22.105469 5.050781 21.933594 5.050781 L 20.039062 5.050781 C 19.863281 5.050781 19.714844 5.109375 19.59375 5.234375 C 19.46875 5.355469 19.40625 5.507812 19.40625 5.679688 C 19.40625 5.855469 19.46875 6.003906 19.59375 6.125 C 19.714844 6.25 19.863281 6.3125 20.039062 6.3125 Z M 20.039062 6.3125 " fill-opacity="1" fill-rule="nonzero"/><path fill="#3366a9" d="M 24.457031 6.3125 L 26.351562 6.3125 C 26.523438 6.3125 26.671875 6.25 26.796875 6.125 C 26.917969 6.003906 26.980469 5.855469 26.980469 5.679688 C 26.980469 5.507812 26.917969 5.355469 26.796875 5.234375 C 26.671875 5.109375 26.523438 5.050781 26.351562 5.050781 L 24.457031 5.050781 C 24.28125 5.050781 24.132812 5.109375 24.011719 5.234375 C 23.886719 5.355469 23.824219 5.507812 23.824219 5.679688 C 23.824219 5.855469 23.886719 6.003906 24.011719 6.125 C 24.132812 6.25 24.28125 6.3125 24.457031 6.3125 Z M 24.457031 6.3125 " fill-opacity="1" fill-rule="nonzero"/></svg>