<svg xmlns="http://www.w3.org/2000/svg" xmlns:xlink="http://www.w3.org/1999/xlink" width="40" zoomAndPan="magnify" viewBox="0 0 30 30.000001" height="40" preserveAspectRatio="xMidYMid meet" version="1.0"><defs><clipPath id="46af1a9f6a"><path d="M 0.484375 4.382812 L 29.515625 4.382812 L 29.515625 24.707031 L 0.484375 24.707031 Z M 0.484375 4.382812 " clip-rule="nonzero"/></clipPath><clipPath id="52f5b2903e"><path d="M 8.175781 9.320312 L 19.789062 9.320312 L 19.789062 19.480469 L 8.175781 19.480469 Z M 8.175781 9.320312 " clip-rule="nonzero"/></clipPath></defs><g clip-path="url(#46af1a9f6a)"><path fill="#3366a9" d="M 27.601562 19.058594 C 27.234375 18.578125 27.015625 17.976562 27.015625 17.328125 C 27.015625 16.636719 27.230469 15.972656 27.671875 15.507812 C 28.765625 14.351562 29.433594 13.003906 29.433594 11.480469 C 29.433594 7.898438 25.792969 5 21.300781 5 C 20.03125 5 18.832031 5.234375 17.761719 5.648438 C 16.070312 4.851562 14.105469 4.382812 12.007812 4.382812 C 5.699219 4.382812 0.566406 8.53125 0.566406 13.628906 C 0.566406 15.703125 1.414062 17.652344 3.082031 19.414062 C 3.539062 19.898438 3.789062 20.609375 3.789062 21.414062 C 3.789062 22.164062 3.523438 22.890625 3.039062 23.460938 C 3.027344 23.476562 3.003906 23.503906 2.984375 23.523438 L 2.957031 23.554688 C 2.757812 23.765625 2.71875 24.078125 2.855469 24.335938 C 2.972656 24.550781 3.199219 24.683594 3.445312 24.683594 L 3.511719 24.683594 L 3.570312 24.671875 C 3.570312 24.671875 3.738281 24.640625 3.757812 24.636719 C 5.261719 24.304688 6.578125 23.425781 7.472656 22.164062 L 7.5 22.128906 L 7.542969 22.140625 C 8.953125 22.625 10.457031 22.871094 12.007812 22.871094 C 16.402344 22.871094 20.21875 20.859375 22.136719 17.917969 C 23.113281 17.839844 24.039062 17.628906 24.882812 17.296875 C 25.433594 18.257812 26.359375 18.980469 27.460938 19.261719 C 27.511719 19.273438 27.613281 19.296875 27.613281 19.296875 C 27.648438 19.300781 27.679688 19.289062 27.699219 19.257812 C 27.714844 19.226562 27.710938 19.191406 27.6875 19.164062 C 27.6875 19.164062 27.632812 19.101562 27.601562 19.058594 Z M 12.007812 21.640625 C 10.414062 21.640625 8.886719 21.359375 7.46875 20.800781 L 6.976562 20.609375 L 6.710938 21.070312 C 6.273438 21.828125 5.640625 22.460938 4.878906 22.894531 L 4.738281 22.976562 L 4.789062 22.824219 C 4.945312 22.367188 5.023438 21.894531 5.023438 21.414062 C 5.023438 20.292969 4.652344 19.28125 3.976562 18.566406 C 2.53125 17.039062 1.800781 15.378906 1.800781 13.628906 C 1.800781 9.210938 6.378906 5.617188 12.007812 5.617188 C 17.640625 5.617188 22.21875 9.210938 22.21875 13.628906 C 22.21875 18.046875 17.636719 21.640625 12.007812 21.640625 Z M 12.007812 21.640625 " fill-opacity="1" fill-rule="nonzero"/></g><g clip-path="url(#52f5b2903e)"><path fill="#3366a9" d="M 9.429688 9.320312 C 8.789062 9.320312 8.269531 9.824219 8.269531 10.449219 L 8.269531 18.351562 C 8.269531 18.972656 8.789062 19.480469 9.429688 19.480469 L 17.550781 19.480469 C 18.191406 19.480469 18.714844 18.972656 18.714844 18.351562 L 18.714844 12.84375 L 17.550781 13.972656 L 17.554688 18.351562 L 9.429688 18.351562 L 9.429688 10.449219 L 16.25 10.449219 L 17.410156 9.320312 Z M 18.882812 9.484375 L 12.910156 15.296875 L 11 13.4375 L 10.179688 14.234375 L 12.910156 16.890625 L 19.703125 10.28125 Z M 18.882812 9.484375 " fill-opacity="1" fill-rule="nonzero"/></g></svg>