<svg xmlns="http://www.w3.org/2000/svg" xmlns:xlink="http://www.w3.org/1999/xlink" width="45" zoomAndPan="magnify" viewBox="0 0 33.75 33.749999" height="45" preserveAspectRatio="xMidYMid meet" version="1.0"><defs><clipPath id="8721317ca2"><path d="M 6 9 L 33 9 L 33 32.25 L 6 32.25 Z M 6 9 " clip-rule="nonzero"/></clipPath></defs><path fill="#ffffff" d="M 7.117188 13.023438 C 7.496094 13.394531 7.871094 13.273438 7.996094 13.148438 L 10.015625 11.367188 C 10.09375 11.378906 10.164062 11.410156 10.246094 11.410156 C 11.074219 11.410156 11.746094 10.746094 11.746094 9.921875 C 11.746094 9.464844 11.527344 9.070312 11.203125 8.800781 L 10.871094 4.21875 C 10.871094 3.96875 10.621094 3.722656 10.246094 3.722656 C 9.746094 3.722656 9.621094 3.96875 9.621094 4.21875 L 9.402344 8.722656 C 9.015625 8.992188 8.746094 9.417969 8.746094 9.921875 C 8.746094 9.980469 8.769531 10.027344 8.777344 10.082031 L 6.992188 12.15625 C 6.867188 12.28125 6.742188 12.652344 7.117188 13.023438 Z M 7.117188 13.023438 " fill-opacity="1" fill-rule="nonzero"/><g clip-path="url(#8721317ca2)"><path fill="#ffffff" d="M 32.257812 28.527344 L 21.878906 11.535156 C 20.628906 9.425781 18.5 9.425781 17.25 11.535156 L 6.992188 28.527344 C 5.742188 30.636719 6.742188 32.25 9.246094 32.25 L 29.882812 32.25 C 32.507812 32.25 33.511719 30.511719 32.257812 28.527344 Z M 18.25 16.25 C 18.625 15.875 19.125 15.628906 19.625 15.628906 C 20.253906 15.628906 20.628906 15.875 21.003906 16.25 C 21.378906 16.621094 21.503906 17.117188 21.503906 17.613281 C 21.503906 18.109375 20.753906 21.707031 20.503906 24.3125 L 18.625 24.3125 C 18.375 21.707031 17.625 18.109375 17.625 17.613281 C 17.625 17.117188 17.875 16.621094 18.25 16.25 Z M 21.003906 28.652344 C 20.628906 29.023438 20.125 29.148438 19.625 29.148438 C 19.125 29.148438 18.625 29.023438 18.25 28.652344 C 17.875 28.28125 17.625 27.910156 17.625 27.289062 C 17.625 26.792969 17.875 26.296875 18.25 25.925781 C 18.625 25.550781 19.125 25.429688 19.625 25.429688 C 20.125 25.429688 20.628906 25.550781 21.003906 25.925781 C 21.378906 26.296875 21.628906 26.792969 21.628906 27.289062 C 21.628906 27.910156 21.378906 28.28125 21.003906 28.652344 Z M 21.003906 28.652344 " fill-opacity="1" fill-rule="nonzero"/></g><path fill="#ffffff" d="M 10.871094 19.847656 L 12.621094 16.992188 C 11.746094 17.242188 10.996094 17.367188 10.246094 17.367188 C 6.117188 17.367188 2.742188 14.015625 2.742188 9.921875 C 2.742188 5.828125 6.117188 2.480469 10.246094 2.480469 C 14.125 2.480469 17.375 5.457031 17.75 9.304688 C 18.25 8.929688 19 8.683594 19.625 8.683594 C 19.75 8.683594 20 8.683594 20.125 8.683594 C 19.5 3.722656 15.25 0 10.246094 0 C 4.742188 0 0.238281 4.464844 0.238281 9.921875 C 0.238281 15.378906 4.742188 19.847656 10.246094 19.847656 C 10.496094 19.847656 10.621094 19.847656 10.871094 19.847656 Z M 10.871094 19.847656 " fill-opacity="1" fill-rule="nonzero"/></svg>