<svg xmlns="http://www.w3.org/2000/svg" xmlns:xlink="http://www.w3.org/1999/xlink" width="45" zoomAndPan="magnify" viewBox="0 0 33.75 33.749999" height="45" preserveAspectRatio="xMidYMid meet" version="1.0"><defs><clipPath id="3f3b7215c9"><path d="M 15.890625 15 L 29.390625 15 L 29.390625 28.5 L 15.890625 28.5 Z M 15.890625 15 " clip-rule="nonzero"/></clipPath><clipPath id="589fd0ff1b"><path d="M 7.089844 0.652344 L 24.339844 0.652344 L 24.339844 32.902344 L 7.089844 32.902344 Z M 7.089844 0.652344 " clip-rule="nonzero"/></clipPath></defs><g clip-path="url(#3f3b7215c9)"><path fill="#3366a9" d="M 22.640625 15 C 26.355469 15 29.390625 18.035156 29.390625 21.75 C 29.390625 25.460938 26.355469 28.5 22.640625 28.5 C 18.929688 28.5 15.890625 25.460938 15.890625 21.75 C 15.890625 18.035156 18.929688 15 22.640625 15 Z M 22.640625 15.746094 C 19.339844 15.746094 16.640625 18.449219 16.640625 21.75 C 16.640625 25.050781 19.339844 27.75 22.640625 27.75 C 25.941406 27.75 28.644531 25.050781 28.644531 21.75 C 28.644531 18.449219 25.941406 15.746094 22.640625 15.746094 " fill-opacity="1" fill-rule="evenodd"/></g><path fill="#3366a9" d="M 21.277344 22.785156 L 25.164062 18.894531 C 25.5 18.5625 26.042969 18.5625 26.378906 18.894531 C 26.710938 19.230469 26.710938 19.773438 26.378906 20.109375 L 21.886719 24.597656 C 21.886719 24.601562 21.886719 24.601562 21.882812 24.601562 C 21.550781 24.9375 21.007812 24.9375 20.671875 24.601562 L 18.90625 22.835938 C 18.570312 22.5 18.570312 21.957031 18.90625 21.625 C 19.238281 21.289062 19.78125 21.289062 20.117188 21.625 L 21.277344 22.785156 " fill-opacity="1" fill-rule="evenodd"/><g clip-path="url(#589fd0ff1b)"><path fill="#3366a9" d="M 22.875 0.683594 C 22.910156 0.683594 22.945312 0.683594 22.976562 0.6875 C 23.039062 0.691406 23.101562 0.699219 23.164062 0.714844 C 23.242188 0.730469 23.320312 0.753906 23.394531 0.78125 C 23.472656 0.816406 23.550781 0.855469 23.625 0.902344 C 23.699219 0.949219 23.769531 1.003906 23.835938 1.0625 C 23.910156 1.132812 23.976562 1.207031 24.03125 1.289062 C 24.085938 1.367188 24.132812 1.449219 24.171875 1.535156 C 24.210938 1.621094 24.238281 1.710938 24.261719 1.804688 C 24.273438 1.871094 24.285156 1.9375 24.289062 2.003906 C 24.292969 2.039062 24.296875 2.078125 24.296875 2.117188 C 24.339844 11.890625 24.339844 21.664062 24.296875 31.4375 C 24.296875 31.476562 24.292969 31.515625 24.289062 31.554688 C 24.285156 31.621094 24.273438 31.6875 24.261719 31.75 C 24.242188 31.835938 24.214844 31.917969 24.183594 31.996094 C 24.144531 32.082031 24.101562 32.164062 24.046875 32.242188 C 23.996094 32.324219 23.933594 32.394531 23.867188 32.460938 C 23.800781 32.527344 23.726562 32.589844 23.648438 32.640625 C 23.578125 32.6875 23.503906 32.726562 23.429688 32.757812 C 23.351562 32.792969 23.273438 32.816406 23.1875 32.835938 C 23.125 32.851562 23.058594 32.863281 22.996094 32.867188 C 22.957031 32.871094 22.917969 32.871094 22.882812 32.875 C 18.105469 32.894531 13.332031 32.894531 8.554688 32.875 C 8.515625 32.871094 8.480469 32.871094 8.441406 32.867188 C 8.375 32.863281 8.3125 32.851562 8.246094 32.835938 C 8.164062 32.816406 8.082031 32.792969 8.003906 32.757812 C 7.914062 32.71875 7.828125 32.667969 7.746094 32.613281 C 7.667969 32.558594 7.597656 32.496094 7.535156 32.425781 C 7.46875 32.359375 7.414062 32.285156 7.363281 32.207031 C 7.320312 32.136719 7.28125 32.058594 7.246094 31.980469 C 7.214844 31.902344 7.191406 31.824219 7.171875 31.742188 C 7.160156 31.675781 7.148438 31.609375 7.144531 31.539062 C 7.140625 31.507812 7.140625 31.472656 7.140625 31.4375 C 7.089844 21.664062 7.089844 11.890625 7.140625 2.117188 C 7.140625 2.082031 7.140625 2.050781 7.144531 2.015625 C 7.148438 1.949219 7.160156 1.878906 7.171875 1.8125 C 7.191406 1.730469 7.21875 1.644531 7.253906 1.566406 C 7.285156 1.480469 7.328125 1.402344 7.378906 1.328125 C 7.429688 1.25 7.488281 1.175781 7.550781 1.113281 C 7.613281 1.046875 7.683594 0.988281 7.761719 0.933594 C 7.835938 0.882812 7.914062 0.839844 7.996094 0.800781 C 8.082031 0.765625 8.167969 0.738281 8.253906 0.71875 C 8.320312 0.703125 8.386719 0.691406 8.449219 0.6875 C 8.484375 0.683594 8.519531 0.683594 8.554688 0.683594 C 13.328125 0.660156 18.101562 0.675781 22.875 0.683594 Z M 16.160156 30.09375 L 15.269531 30.09375 C 14.921875 30.09375 14.636719 30.378906 14.636719 30.734375 L 14.636719 31.636719 C 14.636719 31.992188 14.921875 32.277344 15.269531 32.277344 L 16.160156 32.277344 C 16.511719 32.277344 16.796875 31.992188 16.796875 31.636719 L 16.796875 30.734375 C 16.796875 30.378906 16.511719 30.09375 16.160156 30.09375 Z M 15.996094 30.5 C 16.214844 30.5 16.390625 30.683594 16.390625 30.902344 L 16.390625 31.46875 C 16.390625 31.6875 16.214844 31.871094 15.996094 31.871094 L 15.4375 31.871094 C 15.21875 31.871094 15.042969 31.6875 15.042969 31.46875 L 15.042969 30.902344 C 15.042969 30.683594 15.21875 30.5 15.4375 30.5 Z M 23.796875 2.917969 L 7.644531 2.917969 C 7.632812 11.792969 7.601562 20.667969 7.636719 29.542969 L 23.796875 29.542969 C 23.8125 20.667969 23.832031 11.792969 23.796875 2.917969 Z M 18.542969 1.542969 L 12.890625 1.542969 C 12.824219 1.542969 12.769531 1.597656 12.769531 1.664062 L 12.769531 1.910156 C 12.769531 1.980469 12.824219 2.035156 12.890625 2.035156 L 18.542969 2.035156 C 18.609375 2.035156 18.664062 1.980469 18.664062 1.910156 L 18.664062 1.664062 C 18.664062 1.597656 18.609375 1.542969 18.542969 1.542969 Z M 18.542969 1.542969 " fill-opacity="1" fill-rule="evenodd"/></g></svg>