<svg xmlns="http://www.w3.org/2000/svg" xmlns:xlink="http://www.w3.org/1999/xlink" width="45" zoomAndPan="magnify" viewBox="0 0 33.75 33.749999" height="45" preserveAspectRatio="xMidYMid meet" version="1.0"><defs><clipPath id="d50a760276"><path d="M 9 32 L 14 32 L 14 33.410156 L 9 33.410156 Z M 9 32 " clip-rule="nonzero"/></clipPath><clipPath id="574e79c82a"><path d="M 20 32 L 24 32 L 24 33.410156 L 20 33.410156 Z M 20 32 " clip-rule="nonzero"/></clipPath><clipPath id="cb6067d4af"><path d="M 4 19 L 30 19 L 30 33.410156 L 4 33.410156 Z M 4 19 " clip-rule="nonzero"/></clipPath><clipPath id="ba34e2a3e6"><path d="M 3.375 19 L 9 19 L 9 20 L 3.375 20 Z M 3.375 19 " clip-rule="nonzero"/></clipPath><clipPath id="d060d64868"><path d="M 3.375 18 L 9 18 L 9 19 L 3.375 19 Z M 3.375 18 " clip-rule="nonzero"/></clipPath><clipPath id="8fefbc3db4"><path d="M 3.375 17 L 9 17 L 9 19 L 3.375 19 Z M 3.375 17 " clip-rule="nonzero"/></clipPath><clipPath id="ed62655df8"><path d="M 3.375 17 L 9 17 L 9 18 L 3.375 18 Z M 3.375 17 " clip-rule="nonzero"/></clipPath><clipPath id="0798de3f26"><path d="M 3.375 16 L 9 16 L 9 17 L 3.375 17 Z M 3.375 16 " clip-rule="nonzero"/></clipPath><clipPath id="ecb4452007"><path d="M 3.375 15 L 9 15 L 9 16 L 3.375 16 Z M 3.375 15 " clip-rule="nonzero"/></clipPath><clipPath id="b354f9cce6"><path d="M 3.375 14 L 9 14 L 9 16 L 3.375 16 Z M 3.375 14 " clip-rule="nonzero"/></clipPath><clipPath id="19cedd0367"><path d="M 25 18 L 30.375 18 L 30.375 19 L 25 19 Z M 25 18 " clip-rule="nonzero"/></clipPath><clipPath id="2771988055"><path d="M 25 17 L 30.375 17 L 30.375 18 L 25 18 Z M 25 17 " clip-rule="nonzero"/></clipPath><clipPath id="a1a71546c6"><path d="M 25 15 L 30.375 15 L 30.375 16 L 25 16 Z M 25 15 " clip-rule="nonzero"/></clipPath><clipPath id="c2f35e7de6"><path d="M 13 0.410156 L 16 0.410156 L 16 7 L 13 7 Z M 13 0.410156 " clip-rule="nonzero"/></clipPath></defs><path fill="#ffffff" d="M 12.289062 19.125 L 12.289062 13.894531 L 14.824219 13.894531 C 14.148438 13.410156 13.648438 12.6875 13.449219 11.851562 C 13.109375 11.9375 12.703125 12.105469 12.285156 12.425781 C 10.992188 13.414062 10.175781 15.382812 9.859375 18.277344 C 9.824219 18.597656 9.929688 18.917969 10.140625 19.15625 C 10.355469 19.398438 10.664062 19.535156 10.984375 19.535156 L 11.832031 19.535156 L 11.832031 19.125 Z M 12.289062 19.125 " fill-opacity="1" fill-rule="nonzero"/><path fill="#ffffff" d="M 18.886719 13.894531 L 21.421875 13.894531 L 21.421875 19.125 L 21.878906 19.125 L 21.878906 19.535156 L 22.726562 19.535156 C 23.046875 19.535156 23.355469 19.398438 23.570312 19.15625 C 23.78125 18.917969 23.886719 18.597656 23.851562 18.277344 C 23.535156 15.382812 22.71875 13.414062 21.425781 12.425781 C 21.007812 12.105469 20.601562 11.9375 20.261719 11.851562 C 20.0625 12.6875 19.5625 13.410156 18.886719 13.894531 Z M 18.886719 13.894531 " fill-opacity="1" fill-rule="nonzero"/><g clip-path="url(#d50a760276)"><path fill="#ffffff" d="M 11.40625 33.398438 C 11.476562 33.40625 11.546875 33.410156 11.613281 33.410156 C 12.4375 33.410156 13.152344 32.820312 13.308594 32 L 9.910156 32 C 10.050781 32.722656 10.640625 33.308594 11.40625 33.398438 Z M 11.40625 33.398438 " fill-opacity="1" fill-rule="nonzero"/></g><g clip-path="url(#574e79c82a)"><path fill="#ffffff" d="M 22.097656 33.410156 C 22.164062 33.410156 22.234375 33.40625 22.304688 33.398438 C 23.070312 33.308594 23.660156 32.722656 23.800781 32 L 20.402344 32 C 20.558594 32.820312 21.273438 33.410156 22.097656 33.410156 Z M 22.097656 33.410156 " fill-opacity="1" fill-rule="nonzero"/></g><g clip-path="url(#cb6067d4af)"><path fill="#ffffff" d="M 4.335938 19.976562 L 4.335938 20.683594 L 5.371094 20.683594 L 5.371094 21.933594 L 6.136719 21.933594 L 6.136719 33.300781 L 7.054688 33.300781 L 7.054688 31.578125 L 26.65625 31.578125 L 26.65625 33.300781 L 27.574219 33.300781 L 27.574219 21.933594 L 28.339844 21.933594 L 28.339844 20.683594 L 29.375 20.683594 L 29.375 19.976562 Z M 4.335938 19.976562 " fill-opacity="1" fill-rule="nonzero"/></g><path fill="#ffffff" d="M 15.453125 13.894531 L 18.257812 13.894531 C 19.308594 13.375 20.03125 12.289062 20.03125 11.035156 C 20.03125 9.277344 18.609375 7.851562 16.855469 7.851562 C 15.101562 7.851562 13.679688 9.277344 13.679688 11.035156 C 13.679688 12.289062 14.402344 13.375 15.453125 13.894531 Z M 16.875 11.542969 C 17.859375 11.5625 18.652344 12.042969 18.644531 12.613281 C 18.632812 13.1875 17.84375 12.601562 16.855469 12.582031 C 15.867188 12.5625 15.054688 13.125 15.066406 12.550781 C 15.078125 11.976562 15.886719 11.527344 16.875 11.542969 Z M 16.875 11.542969 " fill-opacity="1" fill-rule="nonzero"/><path fill="#ffffff" d="M 12.714844 14.320312 L 12.714844 19.125 L 20.996094 19.125 L 20.996094 14.320312 Z M 16.503906 17.007812 C 16.503906 16.808594 16.660156 16.652344 16.855469 16.652344 C 17.050781 16.652344 17.207031 16.808594 17.207031 17.007812 C 17.207031 17.203125 17.050781 17.359375 16.855469 17.359375 C 16.660156 17.359375 16.503906 17.203125 16.503906 17.007812 Z M 16.503906 17.007812 " fill-opacity="1" fill-rule="nonzero"/><path fill="#ffffff" d="M 23.296875 6.660156 C 23.003906 5.597656 21.015625 6.285156 20.621094 7.492188 C 22.332031 7.066406 23.570312 7.65625 23.296875 6.660156 Z M 23.296875 6.660156 " fill-opacity="1" fill-rule="nonzero"/><path fill="#ffffff" d="M 20.160156 5.289062 C 19.390625 4.878906 18.703125 6.398438 19.175781 7.285156 C 19.867188 6.066406 20.882812 5.675781 20.160156 5.289062 Z M 20.160156 5.289062 " fill-opacity="1" fill-rule="nonzero"/><path fill="#ffffff" d="M 20.621094 9.34375 C 21.84375 9.273438 22.609375 9.835938 22.550781 9.121094 C 22.488281 8.359375 21.046875 8.574219 20.621094 9.34375 Z M 20.621094 9.34375 " fill-opacity="1" fill-rule="nonzero"/><g clip-path="url(#ba34e2a3e6)"><path fill="#ffffff" d="M 3.375 19.074219 L 8.511719 19.074219 L 8.511719 19.382812 L 3.375 19.382812 Z M 3.375 19.074219 " fill-opacity="1" fill-rule="nonzero"/></g><g clip-path="url(#d060d64868)"><path fill="#ffffff" d="M 3.863281 18.394531 L 9 18.394531 L 9 18.703125 L 3.863281 18.703125 Z M 3.863281 18.394531 " fill-opacity="1" fill-rule="nonzero"/></g><g clip-path="url(#8fefbc3db4)"><path fill="#ffffff" d="M 3.375 17.710938 L 8.511719 17.710938 L 8.511719 18.019531 L 3.375 18.019531 Z M 3.375 17.710938 " fill-opacity="1" fill-rule="nonzero"/></g><g clip-path="url(#ed62655df8)"><path fill="#ffffff" d="M 3.863281 17.03125 L 9 17.03125 L 9 17.339844 L 3.863281 17.339844 Z M 3.863281 17.03125 " fill-opacity="1" fill-rule="nonzero"/></g><g clip-path="url(#0798de3f26)"><path fill="#ffffff" d="M 3.375 16.347656 L 8.511719 16.347656 L 8.511719 16.65625 L 3.375 16.65625 Z M 3.375 16.347656 " fill-opacity="1" fill-rule="nonzero"/></g><g clip-path="url(#ecb4452007)"><path fill="#ffffff" d="M 3.863281 15.664062 L 9 15.664062 L 9 15.976562 L 3.863281 15.976562 Z M 3.863281 15.664062 " fill-opacity="1" fill-rule="nonzero"/></g><g clip-path="url(#b354f9cce6)"><path fill="#ffffff" d="M 3.375 14.984375 L 8.511719 14.984375 L 8.511719 15.292969 L 3.375 15.292969 Z M 3.375 14.984375 " fill-opacity="1" fill-rule="nonzero"/></g><path fill="#ffffff" d="M 24.746094 19.074219 L 29.882812 19.074219 L 29.882812 19.382812 L 24.746094 19.382812 Z M 24.746094 19.074219 " fill-opacity="1" fill-rule="nonzero"/><g clip-path="url(#19cedd0367)"><path fill="#ffffff" d="M 25.234375 18.394531 L 30.371094 18.394531 L 30.371094 18.703125 L 25.234375 18.703125 Z M 25.234375 18.394531 " fill-opacity="1" fill-rule="nonzero"/></g><path fill="#ffffff" d="M 24.746094 17.710938 L 29.882812 17.710938 L 29.882812 18.019531 L 24.746094 18.019531 Z M 24.746094 17.710938 " fill-opacity="1" fill-rule="nonzero"/><g clip-path="url(#2771988055)"><path fill="#ffffff" d="M 25.234375 17.03125 L 30.371094 17.03125 L 30.371094 17.339844 L 25.234375 17.339844 Z M 25.234375 17.03125 " fill-opacity="1" fill-rule="nonzero"/></g><path fill="#ffffff" d="M 24.746094 16.347656 L 29.882812 16.347656 L 29.882812 16.65625 L 24.746094 16.65625 Z M 24.746094 16.347656 " fill-opacity="1" fill-rule="nonzero"/><g clip-path="url(#a1a71546c6)"><path fill="#ffffff" d="M 25.234375 15.664062 L 30.371094 15.664062 L 30.371094 15.976562 L 25.234375 15.976562 Z M 25.234375 15.664062 " fill-opacity="1" fill-rule="nonzero"/></g><path fill="#ffffff" d="M 24.746094 14.984375 L 29.882812 14.984375 L 29.882812 15.292969 L 24.746094 15.292969 Z M 24.746094 14.984375 " fill-opacity="1" fill-rule="nonzero"/><path fill="#ffffff" d="M 14.160156 7.230469 L 10.050781 2.109375 L 9.472656 2.390625 L 13.894531 7.371094 Z M 14.160156 7.230469 " fill-opacity="1" fill-rule="nonzero"/><g clip-path="url(#c2f35e7de6)"><path fill="#ffffff" d="M 15.347656 6.980469 L 14.476562 0.46875 L 13.835938 0.414062 L 15.046875 6.96875 Z M 15.347656 6.980469 " fill-opacity="1" fill-rule="nonzero"/></g><path fill="#ffffff" d="M 13.019531 8.3125 L 7.046875 5.605469 L 6.660156 6.121094 L 12.851562 8.558594 Z M 13.019531 8.3125 " fill-opacity="1" fill-rule="nonzero"/></svg>