<?xml version="1.0" encoding="UTF-8"?>
<svg xmlns="http://www.w3.org/2000/svg" xmlns:xlink="http://www.w3.org/1999/xlink" width="40px" height="40px" viewBox="0 0 40 40" version="1.1">
<g id="surface1">
<path style=" stroke:none;fill-rule:nonzero;fill:rgb(20%,40%,66.27451%);fill-opacity:1;" d="M 36.875 31.402344 L 36.875 3.90625 C 36.875 3.476562 36.523438 3.125 36.09375 3.125 L 32.65625 3.125 C 32.226562 3.125 31.878906 3.476562 31.875 3.90625 L 31.875 36.871094 L 38.4375 36.871094 C 39.300781 36.871094 40 37.570312 40 38.433594 C 40 39.292969 39.300781 39.996094 38.4375 39.996094 L 1.566406 39.996094 C 0.703125 39.996094 0.00390625 39.296875 0.00390625 38.433594 L 0.00390625 27.261719 C 0.0078125 25.105469 1.753906 23.359375 3.910156 23.355469 L 7.347656 23.355469 C 9.5 23.359375 11.246094 25.105469 11.25 27.261719 L 11.25 31.402344 C 11.25 32.265625 10.550781 32.964844 9.6875 32.964844 C 8.824219 32.964844 8.125 32.265625 8.125 31.402344 L 8.125 27.261719 C 8.125 26.832031 7.773438 26.480469 7.34375 26.480469 L 3.910156 26.480469 C 3.476562 26.480469 3.128906 26.832031 3.128906 27.261719 L 3.128906 36.871094 L 14.378906 36.871094 L 14.378906 16.40625 C 14.382812 14.25 16.128906 12.503906 18.28125 12.5 L 21.71875 12.5 C 23.875 12.503906 25.621094 14.25 25.625 16.40625 L 25.625 31.402344 C 25.625 32.265625 24.925781 32.96875 24.0625 32.96875 C 23.199219 32.96875 22.5 32.265625 22.5 31.402344 L 22.5 16.40625 C 22.496094 15.976562 22.148438 15.625 21.71875 15.625 L 18.28125 15.625 C 17.851562 15.625 17.503906 15.976562 17.5 16.40625 L 17.5 36.871094 L 28.75 36.871094 L 28.75 3.90625 C 28.753906 1.75 30.5 0.00390625 32.65625 0 L 36.09375 0 C 38.25 0.00390625 39.996094 1.75 40 3.90625 L 40 31.402344 C 40 32.265625 39.300781 32.96875 38.4375 32.96875 C 37.574219 32.96875 36.875 32.265625 36.875 31.402344 Z M 6.222656 13.984375 L 3.898438 13.984375 C 3.511719 13.984375 3.125 13.742188 3.125 13.28125 C 3.125 12.417969 2.425781 11.71875 1.5625 11.71875 C 0.699219 11.71875 0 12.417969 0 13.28125 C 0 15.378906 1.636719 17.03125 3.75 17.105469 L 3.75 17.96875 C 3.75 18.828125 4.453125 19.53125 5.3125 19.53125 C 6.175781 19.53125 6.878906 18.828125 6.878906 17.96875 L 6.878906 17.0625 C 9.027344 16.761719 10.628906 14.996094 10.628906 12.792969 L 10.628906 12.65625 C 10.628906 10.199219 8.652344 8.203125 6.226562 8.203125 L 4.792969 8.203125 C 4.082031 8.203125 3.523438 7.660156 3.523438 6.964844 L 3.523438 6.851562 C 3.523438 6.152344 4.070312 5.625 4.792969 5.625 L 6.148438 5.625 C 6.546875 5.625 6.957031 5.890625 6.957031 6.335938 C 6.957031 7.199219 7.65625 7.898438 8.519531 7.898438 C 9.382812 7.898438 10.082031 7.199219 10.082031 6.335938 C 10.082031 4.464844 8.699219 2.902344 6.878906 2.566406 L 6.878906 1.5625 C 6.875 0.699219 6.175781 0 5.3125 0 C 4.453125 0 3.75 0.699219 3.75 1.5625 L 3.75 2.621094 C 2.980469 2.804688 2.269531 3.191406 1.695312 3.75 C 0.859375 4.566406 0.390625 5.683594 0.398438 6.851562 L 0.398438 6.964844 C 0.398438 8.144531 0.859375 9.246094 1.691406 10.066406 C 2.519531 10.878906 3.621094 11.324219 4.792969 11.324219 L 6.222656 11.324219 C 6.917969 11.324219 7.503906 11.933594 7.503906 12.652344 L 7.503906 12.789062 C 7.503906 13.46875 6.953125 13.980469 6.222656 13.980469 Z M 6.222656 13.984375 "/>
</g>
</svg>
