<svg xmlns="http://www.w3.org/2000/svg" xmlns:xlink="http://www.w3.org/1999/xlink" width="45" zoomAndPan="magnify" viewBox="0 0 33.75 33.749999" height="45" preserveAspectRatio="xMidYMid meet" version="1.0"><defs><clipPath id="c4fee0f65d"><path d="M 25 12 L 33.5 12 L 33.5 21 L 25 21 Z M 25 12 " clip-rule="nonzero"/></clipPath><clipPath id="1ef56a5919"><path d="M 12 25 L 21 25 L 21 33.5 L 12 33.5 Z M 12 25 " clip-rule="nonzero"/></clipPath></defs><path fill="#3366a9" d="M 14.648438 24.070312 L 15.179688 24.210938 L 15.730469 22.878906 C 15.792969 22.726562 15.953125 22.632812 16.117188 22.652344 C 16.613281 22.71875 17.113281 22.71875 17.609375 22.652344 C 17.773438 22.632812 17.933594 22.726562 17.996094 22.878906 L 18.546875 24.210938 L 19.078125 24.070312 L 18.890625 22.640625 C 18.867188 22.476562 18.960938 22.316406 19.113281 22.253906 C 19.574219 22.0625 20.007812 21.808594 20.40625 21.507812 C 20.539062 21.40625 20.722656 21.40625 20.855469 21.507812 L 21.996094 22.382812 L 22.382812 21.996094 L 21.507812 20.855469 C 21.40625 20.722656 21.40625 20.539062 21.503906 20.40625 C 21.808594 20.007812 22.058594 19.574219 22.253906 19.113281 C 22.316406 18.960938 22.476562 18.867188 22.640625 18.890625 L 24.066406 19.078125 L 24.210938 18.546875 L 22.878906 17.996094 C 22.726562 17.933594 22.632812 17.777344 22.652344 17.609375 C 22.71875 17.117188 22.71875 16.613281 22.652344 16.117188 C 22.632812 15.953125 22.726562 15.792969 22.878906 15.730469 L 24.210938 15.179688 L 24.066406 14.648438 L 22.640625 14.839844 C 22.476562 14.859375 22.316406 14.769531 22.253906 14.613281 C 22.0625 14.152344 21.808594 13.71875 21.507812 13.320312 C 21.40625 13.191406 21.40625 13.003906 21.507812 12.875 L 22.382812 11.730469 L 21.996094 11.34375 L 20.851562 12.222656 C 20.722656 12.324219 20.539062 12.324219 20.40625 12.222656 C 20.007812 11.917969 19.574219 11.667969 19.113281 11.476562 C 18.960938 11.410156 18.867188 11.253906 18.890625 11.085938 L 19.078125 9.660156 L 18.546875 9.515625 L 17.996094 10.847656 C 17.933594 11.003906 17.773438 11.09375 17.609375 11.074219 C 17.113281 11.011719 16.613281 11.011719 16.117188 11.074219 C 15.953125 11.09375 15.792969 11.003906 15.730469 10.847656 L 15.179688 9.515625 L 14.648438 9.660156 L 14.835938 11.085938 C 14.859375 11.253906 14.769531 11.410156 14.613281 11.476562 C 14.152344 11.667969 13.71875 11.917969 13.320312 12.222656 C 13.191406 12.324219 13.003906 12.324219 12.875 12.222656 L 11.730469 11.34375 L 11.34375 11.730469 L 12.21875 12.875 C 12.320312 13.003906 12.324219 13.191406 12.222656 13.320312 C 11.917969 13.71875 11.667969 14.152344 11.472656 14.613281 C 11.410156 14.769531 11.25 14.859375 11.085938 14.839844 L 9.660156 14.648438 L 9.515625 15.179688 L 10.847656 15.730469 C 11.003906 15.792969 11.09375 15.953125 11.074219 16.117188 C 11.007812 16.613281 11.007812 17.117188 11.074219 17.609375 C 11.09375 17.773438 11.003906 17.933594 10.847656 17.996094 L 9.515625 18.546875 L 9.660156 19.078125 L 11.085938 18.890625 C 11.25 18.867188 11.410156 18.960938 11.472656 19.113281 C 11.667969 19.574219 11.917969 20.007812 12.222656 20.40625 C 12.324219 20.539062 12.324219 20.722656 12.222656 20.855469 L 11.34375 21.996094 L 11.730469 22.382812 L 12.875 21.507812 C 13.003906 21.40625 13.1875 21.40625 13.320312 21.507812 C 13.71875 21.808594 14.152344 22.0625 14.613281 22.253906 C 14.769531 22.316406 14.859375 22.476562 14.835938 22.640625 Z M 15.394531 25.019531 C 15.363281 25.019531 15.332031 25.015625 15.300781 25.003906 L 14.144531 24.695312 C 13.96875 24.648438 13.851562 24.476562 13.875 24.292969 L 14.070312 22.816406 C 13.734375 22.660156 13.410156 22.472656 13.101562 22.257812 L 11.925781 23.164062 C 11.777344 23.277344 11.570312 23.265625 11.4375 23.132812 L 10.59375 22.289062 C 10.464844 22.15625 10.449219 21.949219 10.5625 21.804688 L 11.46875 20.625 C 11.253906 20.316406 11.066406 19.992188 10.910156 19.65625 L 9.433594 19.851562 C 9.25 19.875 9.078125 19.761719 9.03125 19.582031 L 8.722656 18.425781 C 8.675781 18.25 8.765625 18.0625 8.9375 17.992188 L 10.3125 17.421875 C 10.28125 17.050781 10.28125 16.675781 10.3125 16.304688 L 8.9375 15.734375 C 8.765625 15.664062 8.675781 15.480469 8.722656 15.300781 L 9.03125 14.148438 C 9.078125 13.96875 9.25 13.851562 9.433594 13.875 L 10.910156 14.070312 C 11.066406 13.734375 11.253906 13.410156 11.46875 13.105469 L 10.5625 11.925781 C 10.449219 11.777344 10.464844 11.570312 10.59375 11.4375 L 11.4375 10.59375 C 11.570312 10.464844 11.777344 10.449219 11.921875 10.5625 L 13.105469 11.46875 C 13.410156 11.253906 13.734375 11.066406 14.070312 10.910156 L 13.875 9.433594 C 13.851562 9.253906 13.96875 9.078125 14.144531 9.03125 L 15.300781 8.722656 C 15.480469 8.675781 15.664062 8.765625 15.734375 8.9375 L 16.304688 10.3125 C 16.675781 10.28125 17.050781 10.28125 17.421875 10.3125 L 17.992188 8.9375 C 18.0625 8.765625 18.246094 8.675781 18.425781 8.722656 L 19.582031 9.03125 C 19.757812 9.078125 19.875 9.253906 19.851562 9.433594 L 19.65625 10.910156 C 19.992188 11.066406 20.316406 11.253906 20.625 11.46875 L 21.804688 10.5625 C 21.949219 10.449219 22.15625 10.464844 22.289062 10.59375 L 23.132812 11.4375 C 23.265625 11.570312 23.277344 11.777344 23.164062 11.925781 L 22.257812 13.105469 C 22.472656 13.410156 22.660156 13.734375 22.816406 14.070312 L 24.292969 13.875 C 24.476562 13.851562 24.648438 13.96875 24.695312 14.148438 L 25.003906 15.300781 C 25.054688 15.480469 24.960938 15.664062 24.789062 15.734375 L 23.414062 16.304688 C 23.445312 16.675781 23.445312 17.050781 23.414062 17.421875 L 24.789062 17.992188 C 24.960938 18.0625 25.054688 18.25 25.003906 18.425781 L 24.695312 19.582031 C 24.648438 19.761719 24.476562 19.875 24.292969 19.851562 L 22.816406 19.65625 C 22.660156 19.992188 22.472656 20.316406 22.257812 20.625 L 23.164062 21.804688 C 23.277344 21.949219 23.261719 22.15625 23.132812 22.289062 L 22.289062 23.132812 C 22.15625 23.265625 21.949219 23.277344 21.804688 23.164062 L 20.625 22.257812 C 20.316406 22.472656 19.992188 22.660156 19.65625 22.820312 L 19.851562 24.292969 C 19.875 24.476562 19.757812 24.648438 19.582031 24.695312 L 18.425781 25.003906 C 18.25 25.054688 18.0625 24.960938 17.992188 24.789062 L 17.421875 23.414062 C 17.050781 23.445312 16.675781 23.445312 16.304688 23.414062 L 15.738281 24.789062 C 15.679688 24.929688 15.542969 25.019531 15.394531 25.019531 Z M 15.394531 25.019531 " fill-opacity="1" fill-rule="evenodd"/><path fill="#3366a9" d="M 16.863281 13.296875 C 14.898438 13.296875 13.296875 14.898438 13.296875 16.863281 C 13.296875 18.832031 14.898438 20.429688 16.863281 20.429688 C 18.828125 20.429688 20.429688 18.832031 20.429688 16.863281 C 20.429688 14.898438 18.828125 13.296875 16.863281 13.296875 Z M 16.863281 21.167969 C 14.492188 21.167969 12.558594 19.238281 12.558594 16.863281 C 12.558594 14.492188 14.492188 12.5625 16.863281 12.5625 C 19.234375 12.558594 21.167969 14.492188 21.167969 16.863281 C 21.167969 19.238281 19.234375 21.167969 16.863281 21.167969 Z M 16.863281 21.167969 " fill-opacity="1" fill-rule="evenodd"/><path fill="#3366a9" d="M 16.863281 0.726562 C 14.996094 0.726562 13.476562 2.25 13.476562 4.117188 C 13.476562 5.984375 14.996094 7.503906 16.863281 7.503906 C 18.730469 7.503906 20.25 5.984375 20.25 4.117188 C 20.25 2.25 18.730469 0.726562 16.863281 0.726562 Z M 16.863281 8.242188 C 14.589844 8.242188 12.738281 6.390625 12.738281 4.117188 C 12.738281 1.839844 14.589844 -0.0078125 16.863281 -0.0078125 C 19.136719 -0.0078125 20.988281 1.839844 20.988281 4.117188 C 20.988281 6.390625 19.136719 8.242188 16.863281 8.242188 Z M 16.863281 8.242188 " fill-opacity="1" fill-rule="evenodd"/><g clip-path="url(#c4fee0f65d)"><path fill="#3366a9" d="M 29.613281 13.476562 C 27.742188 13.476562 26.222656 14.996094 26.222656 16.863281 C 26.222656 18.730469 27.742188 20.253906 29.613281 20.253906 C 31.480469 20.253906 33 18.730469 33 16.863281 C 33 14.996094 31.480469 13.476562 29.613281 13.476562 Z M 29.613281 20.988281 C 27.335938 20.988281 25.488281 19.136719 25.488281 16.863281 C 25.488281 14.589844 27.335938 12.738281 29.613281 12.738281 C 31.886719 12.738281 33.738281 14.589844 33.738281 16.863281 C 33.738281 19.136719 31.886719 20.988281 29.613281 20.988281 Z M 29.613281 20.988281 " fill-opacity="1" fill-rule="evenodd"/></g><g clip-path="url(#1ef56a5919)"><path fill="#3366a9" d="M 16.863281 26.222656 C 14.996094 26.222656 13.476562 27.742188 13.476562 29.613281 C 13.476562 31.480469 14.996094 33 16.863281 33 C 18.730469 33 20.25 31.480469 20.25 29.613281 C 20.25 27.742188 18.730469 26.222656 16.863281 26.222656 Z M 16.863281 33.734375 C 14.589844 33.734375 12.738281 31.886719 12.738281 29.613281 C 12.738281 27.335938 14.589844 25.488281 16.863281 25.488281 C 19.136719 25.488281 20.988281 27.335938 20.988281 29.613281 C 20.988281 31.886719 19.136719 33.734375 16.863281 33.734375 Z M 16.863281 33.734375 " fill-opacity="1" fill-rule="evenodd"/></g><path fill="#3366a9" d="M 4.117188 13.476562 C 2.246094 13.476562 0.726562 14.996094 0.726562 16.863281 C 0.726562 18.730469 2.246094 20.253906 4.117188 20.253906 C 5.984375 20.253906 7.503906 18.730469 7.503906 16.863281 C 7.503906 14.996094 5.984375 13.476562 4.117188 13.476562 Z M 4.117188 20.988281 C 1.839844 20.988281 -0.0078125 19.136719 -0.0078125 16.863281 C -0.0078125 14.589844 1.839844 12.738281 4.117188 12.738281 C 6.390625 12.738281 8.242188 14.589844 8.242188 16.863281 C 8.242188 19.136719 6.390625 20.988281 4.117188 20.988281 Z M 4.117188 20.988281 " fill-opacity="1" fill-rule="evenodd"/><path fill="#3366a9" d="M 10.691406 28.386719 C 10.632812 28.386719 10.570312 28.375 10.515625 28.34375 C 8.355469 27.144531 6.582031 25.371094 5.386719 23.210938 C 5.285156 23.035156 5.351562 22.8125 5.527344 22.710938 C 5.707031 22.613281 5.929688 22.675781 6.027344 22.855469 C 7.160156 24.894531 8.832031 26.566406 10.871094 27.699219 C 11.050781 27.796875 11.113281 28.019531 11.015625 28.199219 C 10.949219 28.320312 10.820312 28.386719 10.691406 28.386719 Z M 10.691406 28.386719 " fill-opacity="1" fill-rule="evenodd"/><path fill="#3366a9" d="M 23.035156 28.386719 C 22.90625 28.386719 22.78125 28.320312 22.710938 28.199219 C 22.613281 28.019531 22.679688 27.796875 22.855469 27.699219 C 24.894531 26.566406 26.566406 24.894531 27.699219 22.855469 C 27.796875 22.679688 28.019531 22.613281 28.199219 22.710938 C 28.375 22.8125 28.441406 23.035156 28.34375 23.214844 C 27.144531 25.371094 25.371094 27.144531 23.210938 28.34375 C 23.15625 28.375 23.09375 28.386719 23.035156 28.386719 Z M 23.035156 28.386719 " fill-opacity="1" fill-rule="evenodd"/><path fill="#3366a9" d="M 28.019531 11.0625 C 27.890625 11.0625 27.765625 10.992188 27.699219 10.871094 C 26.566406 8.832031 24.894531 7.160156 22.855469 6.03125 C 22.679688 5.929688 22.613281 5.707031 22.710938 5.527344 C 22.8125 5.351562 23.035156 5.289062 23.214844 5.386719 C 25.371094 6.582031 27.144531 8.355469 28.34375 10.515625 C 28.441406 10.691406 28.375 10.917969 28.199219 11.015625 C 28.140625 11.046875 28.082031 11.0625 28.019531 11.0625 Z M 28.019531 11.0625 " fill-opacity="1" fill-rule="evenodd"/><path fill="#3366a9" d="M 5.707031 11.0625 C 5.648438 11.0625 5.585938 11.046875 5.527344 11.015625 C 5.351562 10.917969 5.285156 10.691406 5.386719 10.515625 C 6.582031 8.355469 8.355469 6.582031 10.515625 5.386719 C 10.691406 5.285156 10.917969 5.351562 11.015625 5.527344 C 11.113281 5.707031 11.050781 5.929688 10.871094 6.03125 C 8.832031 7.160156 7.160156 8.832031 6.03125 10.871094 C 5.960938 10.992188 5.835938 11.0625 5.707031 11.0625 Z M 5.707031 11.0625 " fill-opacity="1" fill-rule="evenodd"/><path fill="#3366a9" d="M 10.691406 6.074219 C 10.660156 6.074219 10.628906 6.070312 10.597656 6.0625 L 8.175781 5.414062 C 7.980469 5.363281 7.863281 5.160156 7.917969 4.964844 C 7.96875 4.765625 8.171875 4.652344 8.367188 4.703125 L 10.789062 5.351562 C 10.984375 5.402344 11.101562 5.605469 11.046875 5.800781 C 11.003906 5.96875 10.855469 6.074219 10.691406 6.074219 Z M 10.691406 6.074219 " fill-opacity="1" fill-rule="evenodd"/><path fill="#3366a9" d="M 10.234375 8.339844 C 10.210938 8.339844 10.1875 8.339844 10.164062 8.332031 C 9.964844 8.292969 9.835938 8.097656 9.875 7.898438 L 10.332031 5.632812 C 10.371094 5.433594 10.566406 5.304688 10.765625 5.347656 C 10.964844 5.386719 11.09375 5.582031 11.054688 5.78125 L 10.597656 8.046875 C 10.5625 8.21875 10.40625 8.339844 10.234375 8.339844 Z M 10.234375 8.339844 " fill-opacity="1" fill-rule="evenodd"/><path fill="#3366a9" d="M 28.019531 11.0625 C 27.988281 11.0625 27.957031 11.058594 27.925781 11.046875 C 27.726562 10.996094 27.613281 10.792969 27.664062 10.597656 L 28.3125 8.175781 C 28.367188 7.980469 28.566406 7.863281 28.765625 7.917969 C 28.960938 7.96875 29.078125 8.171875 29.023438 8.367188 L 28.375 10.789062 C 28.332031 10.953125 28.183594 11.0625 28.019531 11.0625 Z M 28.019531 11.0625 " fill-opacity="1" fill-rule="evenodd"/><path fill="#3366a9" d="M 28.019531 11.0625 C 27.996094 11.0625 27.972656 11.058594 27.945312 11.054688 L 25.683594 10.597656 C 25.484375 10.558594 25.355469 10.363281 25.394531 10.164062 C 25.433594 9.964844 25.628906 9.835938 25.828125 9.875 L 28.09375 10.332031 C 28.292969 10.371094 28.421875 10.566406 28.382812 10.765625 C 28.347656 10.941406 28.191406 11.0625 28.019531 11.0625 Z M 28.019531 11.0625 " fill-opacity="1" fill-rule="evenodd"/><path fill="#3366a9" d="M 25.453125 29.039062 C 25.421875 29.039062 25.390625 29.035156 25.359375 29.023438 L 22.9375 28.375 C 22.742188 28.324219 22.625 28.121094 22.679688 27.925781 C 22.730469 27.730469 22.933594 27.613281 23.128906 27.664062 L 25.550781 28.3125 C 25.746094 28.367188 25.863281 28.566406 25.808594 28.765625 C 25.765625 28.929688 25.617188 29.039062 25.453125 29.039062 Z M 25.453125 29.039062 " fill-opacity="1" fill-rule="evenodd"/><path fill="#3366a9" d="M 23.035156 28.386719 C 23.011719 28.386719 22.984375 28.386719 22.960938 28.382812 C 22.761719 28.339844 22.632812 28.148438 22.671875 27.949219 L 23.128906 25.683594 C 23.171875 25.484375 23.363281 25.355469 23.5625 25.394531 C 23.765625 25.433594 23.894531 25.628906 23.851562 25.828125 L 23.394531 28.09375 C 23.359375 28.269531 23.207031 28.386719 23.035156 28.386719 Z M 23.035156 28.386719 " fill-opacity="1" fill-rule="evenodd"/><path fill="#3366a9" d="M 5.058594 25.824219 C 5.027344 25.824219 4.996094 25.820312 4.964844 25.8125 C 4.765625 25.757812 4.648438 25.554688 4.703125 25.359375 L 5.351562 22.941406 C 5.402344 22.742188 5.605469 22.625 5.800781 22.679688 C 6 22.730469 6.117188 22.933594 6.0625 23.128906 L 5.414062 25.550781 C 5.371094 25.714844 5.222656 25.824219 5.058594 25.824219 Z M 5.058594 25.824219 " fill-opacity="1" fill-rule="evenodd"/><path fill="#3366a9" d="M 7.972656 23.859375 C 7.949219 23.859375 7.925781 23.859375 7.898438 23.851562 L 5.632812 23.394531 C 5.433594 23.355469 5.304688 23.160156 5.347656 22.960938 C 5.386719 22.761719 5.582031 22.632812 5.78125 22.671875 L 8.046875 23.128906 C 8.246094 23.171875 8.375 23.363281 8.332031 23.5625 C 8.296875 23.738281 8.144531 23.859375 7.972656 23.859375 Z M 7.972656 23.859375 " fill-opacity="1" fill-rule="evenodd"/><path fill="#3366a9" d="M 18.777344 6.125 L 14.949219 6.125 C 14.746094 6.125 14.582031 5.960938 14.582031 5.757812 L 14.582031 2.476562 C 14.582031 2.273438 14.746094 2.109375 14.949219 2.109375 C 15.152344 2.109375 15.320312 2.273438 15.320312 2.476562 L 15.320312 5.386719 L 18.777344 5.386719 C 18.980469 5.386719 19.144531 5.550781 19.144531 5.757812 C 19.144531 5.960938 18.980469 6.125 18.777344 6.125 Z M 18.777344 6.125 " fill-opacity="1" fill-rule="evenodd"/><path fill="#3366a9" d="M 17.121094 6.125 C 16.917969 6.125 16.75 5.960938 16.75 5.757812 L 16.75 3.820312 C 16.75 3.617188 16.917969 3.453125 17.121094 3.453125 C 17.324219 3.453125 17.488281 3.617188 17.488281 3.820312 L 17.488281 5.757812 C 17.488281 5.960938 17.324219 6.125 17.121094 6.125 Z M 17.121094 6.125 " fill-opacity="1" fill-rule="evenodd"/><path fill="#3366a9" d="M 18.097656 6.125 C 17.894531 6.125 17.730469 5.960938 17.730469 5.757812 L 17.730469 3.019531 C 17.730469 2.816406 17.894531 2.652344 18.097656 2.652344 C 18.300781 2.652344 18.46875 2.816406 18.46875 3.019531 L 18.46875 5.757812 C 18.46875 5.960938 18.300781 6.125 18.097656 6.125 Z M 18.097656 6.125 " fill-opacity="1" fill-rule="evenodd"/><path fill="#3366a9" d="M 16.140625 6.125 C 15.9375 6.125 15.773438 5.960938 15.773438 5.757812 L 15.773438 4.390625 C 15.773438 4.183594 15.9375 4.019531 16.140625 4.019531 C 16.34375 4.019531 16.511719 4.183594 16.511719 4.390625 L 16.511719 5.757812 C 16.511719 5.960938 16.34375 6.125 16.140625 6.125 Z M 16.140625 6.125 " fill-opacity="1" fill-rule="evenodd"/><path fill="#3366a9" d="M 3.46875 17.785156 C 3.628906 18.296875 4.105469 18.671875 4.667969 18.671875 C 5.359375 18.671875 5.921875 18.109375 5.921875 17.417969 C 5.921875 16.855469 5.550781 16.375 5.035156 16.21875 L 5.035156 17.417969 C 5.035156 17.621094 4.871094 17.785156 4.667969 17.785156 Z M 4.667969 19.40625 C 3.570312 19.40625 2.679688 18.515625 2.679688 17.417969 C 2.679688 17.210938 2.84375 17.046875 3.046875 17.046875 L 4.300781 17.046875 L 4.300781 15.792969 C 4.300781 15.589844 4.464844 15.425781 4.667969 15.425781 C 5.765625 15.425781 6.660156 16.320312 6.660156 17.417969 C 6.660156 18.511719 5.765625 19.40625 4.667969 19.40625 Z M 4.667969 19.40625 " fill-opacity="1" fill-rule="evenodd"/><path fill="#3366a9" d="M 2.363281 15.941406 L 3.195312 15.941406 L 3.195312 15.113281 C 2.800781 15.234375 2.488281 15.546875 2.363281 15.941406 Z M 3.5625 16.679688 L 1.941406 16.679688 C 1.738281 16.679688 1.574219 16.515625 1.574219 16.3125 C 1.574219 15.214844 2.464844 14.320312 3.5625 14.320312 C 3.765625 14.320312 3.929688 14.484375 3.929688 14.691406 L 3.929688 16.3125 C 3.929688 16.515625 3.765625 16.679688 3.5625 16.679688 Z M 3.5625 16.679688 " fill-opacity="1" fill-rule="evenodd"/><path fill="#3366a9" d="M 29.613281 15.96875 C 29.117188 15.96875 28.714844 16.371094 28.714844 16.863281 C 28.714844 17.359375 29.117188 17.761719 29.613281 17.761719 C 30.105469 17.761719 30.507812 17.359375 30.507812 16.863281 C 30.507812 16.371094 30.105469 15.96875 29.613281 15.96875 Z M 29.613281 18.496094 C 28.710938 18.496094 27.976562 17.765625 27.976562 16.863281 C 27.976562 15.964844 28.710938 15.230469 29.613281 15.230469 C 30.511719 15.230469 31.246094 15.964844 31.246094 16.863281 C 31.246094 17.765625 30.511719 18.496094 29.613281 18.496094 Z M 29.613281 18.496094 " fill-opacity="1" fill-rule="evenodd"/><path fill="#3366a9" d="M 29.613281 19.46875 C 29.40625 19.46875 29.242188 19.300781 29.242188 19.097656 L 29.242188 18.128906 C 29.242188 17.925781 29.40625 17.761719 29.613281 17.761719 C 29.816406 17.761719 29.980469 17.925781 29.980469 18.128906 L 29.980469 19.097656 C 29.980469 19.300781 29.816406 19.46875 29.613281 19.46875 Z M 29.613281 19.46875 " fill-opacity="1" fill-rule="evenodd"/><path fill="#3366a9" d="M 29.613281 15.96875 C 29.40625 15.96875 29.242188 15.800781 29.242188 15.597656 L 29.242188 14.628906 C 29.242188 14.425781 29.40625 14.261719 29.613281 14.261719 C 29.816406 14.261719 29.980469 14.425781 29.980469 14.628906 L 29.980469 15.597656 C 29.980469 15.800781 29.816406 15.96875 29.613281 15.96875 Z M 29.613281 15.96875 " fill-opacity="1" fill-rule="evenodd"/><path fill="#3366a9" d="M 28.347656 17.230469 L 27.375 17.230469 C 27.171875 17.230469 27.007812 17.066406 27.007812 16.863281 C 27.007812 16.660156 27.171875 16.496094 27.375 16.496094 L 28.347656 16.496094 C 28.550781 16.496094 28.714844 16.660156 28.714844 16.863281 C 28.714844 17.066406 28.550781 17.230469 28.347656 17.230469 Z M 28.347656 17.230469 " fill-opacity="1" fill-rule="evenodd"/><path fill="#3366a9" d="M 31.847656 17.230469 L 30.878906 17.230469 C 30.671875 17.230469 30.507812 17.066406 30.507812 16.863281 C 30.507812 16.660156 30.671875 16.496094 30.875 16.496094 L 31.847656 16.496094 C 32.050781 16.496094 32.214844 16.660156 32.214844 16.863281 C 32.214844 17.066406 32.050781 17.230469 31.847656 17.230469 Z M 31.847656 17.230469 " fill-opacity="1" fill-rule="evenodd"/><path fill="#3366a9" d="M 15.753906 28.5 C 15.359375 28.894531 15.359375 29.539062 15.753906 29.933594 C 15.945312 30.121094 16.199219 30.226562 16.46875 30.226562 C 16.738281 30.226562 16.992188 30.121094 17.183594 29.933594 C 17.375 29.742188 17.480469 29.488281 17.480469 29.214844 C 17.480469 28.945312 17.375 28.691406 17.183594 28.5 C 16.789062 28.105469 16.148438 28.105469 15.753906 28.5 Z M 16.46875 30.964844 C 16 30.964844 15.5625 30.78125 15.230469 30.453125 C 14.550781 29.769531 14.550781 28.660156 15.230469 27.980469 C 15.914062 27.296875 17.023438 27.296875 17.703125 27.980469 C 18.035156 28.308594 18.21875 28.75 18.21875 29.214844 C 18.21875 29.683594 18.035156 30.121094 17.703125 30.453125 C 17.375 30.78125 16.933594 30.964844 16.46875 30.964844 Z M 16.46875 30.964844 " fill-opacity="1" fill-rule="evenodd"/><path fill="#3366a9" d="M 18.640625 31.753906 C 18.542969 31.753906 18.449219 31.71875 18.378906 31.648438 L 17.183594 30.453125 C 17.039062 30.308594 17.039062 30.074219 17.183594 29.933594 C 17.328125 29.789062 17.5625 29.789062 17.703125 29.933594 L 18.898438 31.125 C 19.042969 31.269531 19.042969 31.503906 18.898438 31.648438 C 18.828125 31.71875 18.734375 31.753906 18.640625 31.753906 Z M 18.640625 31.753906 " fill-opacity="1" fill-rule="evenodd"/></svg>