<?xml version="1.0" encoding="UTF-8"?>
<svg xmlns="http://www.w3.org/2000/svg" xmlns:xlink="http://www.w3.org/1999/xlink" width="40px" height="40px" viewBox="0 0 40 40" version="1.1">
<defs>
<linearGradient id="linear0" gradientUnits="userSpaceOnUse" x1="0" y1="14.067" x2="28" y2="14.067" gradientTransform="matrix(1.428571,0,0,1.428571,0,0)">
<stop offset="0" style="stop-color:rgb(31.764706%,60.392157%,83.137255%);stop-opacity:1;"/>
<stop offset="1" style="stop-color:rgb(20%,40%,66.27451%);stop-opacity:1;"/>
</linearGradient>
</defs>
<g id="surface1">
<path style=" stroke:none;fill-rule:nonzero;fill:url(#linear0);" d="M 37.601562 32.207031 C 39.175781 30.066406 40 27.582031 40 24.960938 C 40 20.769531 37.824219 16.878906 34.15625 14.445312 C 33.816406 10.710938 32.074219 7.246094 29.15625 4.578125 C 25.929688 1.625 21.652344 0 17.109375 0 C 12.5625 0 8.285156 1.625 5.058594 4.578125 C 1.796875 7.5625 0 11.546875 0 15.792969 C 0 19.054688 1.054688 22.152344 3.054688 24.800781 L 0.113281 32.070312 C -0.125 32.660156 0.015625 33.335938 0.472656 33.777344 C 0.769531 34.066406 1.164062 34.21875 1.5625 34.21875 C 1.777344 34.21875 1.988281 34.175781 2.191406 34.085938 L 10.574219 30.386719 C 11.628906 30.792969 12.710938 31.089844 13.820312 31.292969 C 14.957031 33.160156 16.578125 34.742188 18.546875 35.894531 C 20.75 37.179688 23.289062 37.867188 25.898438 37.886719 L 26.015625 37.894531 C 27.792969 37.898438 29.558594 37.582031 31.226562 36.964844 L 37.808594 39.867188 C 38.003906 39.953125 38.21875 40 38.4375 40 C 38.835938 40 39.226562 39.847656 39.527344 39.558594 C 39.984375 39.117188 40.125 38.441406 39.886719 37.851562 L 37.605469 32.207031 Z M 34.367188 32.535156 L 35.546875 35.453125 L 31.886719 33.839844 C 31.492188 33.667969 31.042969 33.664062 30.644531 33.835938 C 29.210938 34.445312 27.675781 34.761719 26.078125 34.769531 L 26.015625 34.765625 C 22.9375 34.765625 20.027344 33.5625 17.996094 31.5625 C 20.574219 31.4375 23.097656 30.78125 25.351562 29.636719 C 26.121094 29.246094 26.425781 28.304688 26.035156 27.535156 C 25.644531 26.765625 24.703125 26.457031 23.933594 26.847656 C 21.863281 27.902344 19.5 28.457031 17.109375 28.457031 C 15.03125 28.457031 13.03125 28.054688 11.164062 27.257812 C 10.765625 27.085938 10.3125 27.089844 9.921875 27.265625 L 4.453125 29.671875 L 6.292969 25.121094 C 6.511719 24.582031 6.414062 23.964844 6.035156 23.523438 C 4.132812 21.289062 3.125 18.617188 3.125 15.792969 C 3.125 8.808594 9.398438 3.125 17.109375 3.125 C 24.820312 3.125 31.09375 8.808594 31.09375 15.792969 C 31.09375 18.046875 30.429688 20.261719 29.175781 22.195312 C 28.707031 22.921875 28.914062 23.886719 29.636719 24.355469 C 30.359375 24.828125 31.328125 24.621094 31.796875 23.898438 C 32.898438 22.203125 33.648438 20.304688 34 18.316406 C 35.828125 20.109375 36.875 22.472656 36.875 24.960938 C 36.875 27.144531 36.097656 29.210938 34.625 30.9375 C 34.246094 31.378906 34.148438 31.996094 34.363281 32.535156 Z M 18.59375 23.828125 C 18.59375 24.691406 17.894531 25.390625 17.03125 25.390625 C 16.167969 25.390625 15.46875 24.691406 15.46875 23.828125 C 15.46875 22.964844 16.167969 22.265625 17.03125 22.265625 C 17.894531 22.265625 18.59375 22.964844 18.59375 23.828125 Z M 22.96875 12.121094 C 22.96875 12.144531 22.96875 12.164062 22.96875 12.1875 C 22.96875 14.535156 21.570312 16.660156 19.410156 17.578125 C 18.960938 17.769531 18.671875 18.222656 18.671875 18.730469 L 18.671875 18.828125 C 18.671875 19.691406 17.972656 20.394531 17.109375 20.394531 C 16.246094 20.394531 15.546875 19.691406 15.546875 18.828125 L 15.546875 18.730469 C 15.539062 16.980469 16.574219 15.398438 18.179688 14.707031 C 19.175781 14.28125 19.824219 13.3125 19.84375 12.234375 L 19.84375 12.1875 C 19.84375 10.679688 18.617188 9.453125 17.109375 9.453125 C 15.601562 9.453125 14.375 10.679688 14.375 12.1875 C 14.375 13.050781 13.675781 13.75 12.8125 13.75 C 11.949219 13.75 11.25 13.050781 11.25 12.1875 C 11.25 8.957031 13.878906 6.328125 17.105469 6.328125 C 20.316406 6.328125 22.929688 8.921875 22.964844 12.121094 Z M 22.96875 12.121094 "/>
</g>
</svg>
