<svg xmlns="http://www.w3.org/2000/svg" xmlns:xlink="http://www.w3.org/1999/xlink" width="45" zoomAndPan="magnify" viewBox="0 0 33.75 33.749999" height="45" preserveAspectRatio="xMidYMid meet" version="1.0"><defs><clipPath id="d3ce719359"><path d="M 0.535156 2.210938 L 33.5 2.210938 L 33.5 33.5 L 0.535156 33.5 Z M 0.535156 2.210938 " clip-rule="nonzero"/></clipPath><clipPath id="ed4553debc"><path d="M 10.390625 1.273438 L 20.140625 1.273438 L 20.140625 11.023438 L 10.390625 11.023438 Z M 10.390625 1.273438 " clip-rule="nonzero"/></clipPath><clipPath id="5106966bbb"><path d="M 15 6 L 20.140625 6 L 20.140625 11.023438 L 15 11.023438 Z M 15 6 " clip-rule="nonzero"/></clipPath></defs><path fill="#3366a9" d="M 15.050781 19.074219 L 18.867188 19.074219 C 19.003906 19.074219 19.117188 19.121094 19.210938 19.214844 C 19.304688 19.304688 19.351562 19.417969 19.351562 19.550781 L 19.351562 30.136719 C 19.351562 30.269531 19.304688 30.382812 19.210938 30.472656 C 19.117188 30.566406 19.003906 30.613281 18.867188 30.613281 L 15.050781 30.613281 C 14.917969 30.613281 14.804688 30.566406 14.710938 30.472656 C 14.617188 30.382812 14.566406 30.269531 14.566406 30.136719 L 14.566406 19.550781 C 14.566406 19.417969 14.617188 19.304688 14.710938 19.214844 C 14.804688 19.121094 14.917969 19.074219 15.050781 19.074219 Z M 15.050781 19.074219 " fill-opacity="1" fill-rule="nonzero"/><path fill="#3366a9" d="M 28.546875 12.679688 L 32.363281 12.679688 C 32.496094 12.679688 32.609375 12.726562 32.703125 12.820312 C 32.796875 12.914062 32.847656 13.027344 32.847656 13.15625 L 32.847656 30.136719 C 32.847656 30.269531 32.796875 30.382812 32.703125 30.472656 C 32.609375 30.566406 32.496094 30.613281 32.363281 30.613281 L 28.546875 30.613281 C 28.410156 30.613281 28.296875 30.566406 28.203125 30.472656 C 28.109375 30.382812 28.0625 30.269531 28.0625 30.136719 L 28.0625 13.15625 C 28.0625 13.027344 28.109375 12.914062 28.203125 12.820312 C 28.296875 12.726562 28.410156 12.679688 28.546875 12.679688 Z M 28.546875 12.679688 " fill-opacity="1" fill-rule="nonzero"/><path fill="#3366a9" d="M 21.796875 22.691406 L 25.617188 22.691406 C 25.75 22.691406 25.863281 22.738281 25.957031 22.832031 C 26.050781 22.925781 26.097656 23.039062 26.097656 23.167969 L 26.097656 30.132812 C 26.097656 30.265625 26.050781 30.378906 25.957031 30.46875 C 25.863281 30.5625 25.75 30.609375 25.617188 30.609375 L 21.796875 30.609375 C 21.664062 30.609375 21.550781 30.5625 21.457031 30.46875 C 21.363281 30.378906 21.316406 30.265625 21.316406 30.132812 L 21.316406 23.167969 C 21.316406 23.039062 21.363281 22.925781 21.457031 22.832031 C 21.550781 22.738281 21.664062 22.691406 21.796875 22.691406 Z M 21.796875 22.691406 " fill-opacity="1" fill-rule="nonzero"/><path fill="#3366a9" d="M 8.304688 26.898438 L 12.121094 26.898438 C 12.253906 26.898438 12.371094 26.945312 12.464844 27.039062 C 12.558594 27.132812 12.605469 27.246094 12.605469 27.378906 L 12.605469 30.132812 C 12.605469 30.265625 12.558594 30.378906 12.464844 30.46875 C 12.371094 30.5625 12.253906 30.609375 12.121094 30.609375 L 8.304688 30.609375 C 8.171875 30.609375 8.058594 30.5625 7.964844 30.46875 C 7.867188 30.378906 7.820312 30.265625 7.820312 30.132812 L 7.820312 27.378906 C 7.820312 27.246094 7.867188 27.132812 7.964844 27.039062 C 8.058594 26.945312 8.171875 26.898438 8.304688 26.898438 Z M 8.304688 26.898438 " fill-opacity="1" fill-rule="nonzero"/><path fill="#3366a9" d="M 6.171875 19.445312 C 6.3125 19.445312 6.429688 19.394531 6.527344 19.289062 L 12.898438 12.488281 L 16.59375 16.691406 C 16.6875 16.796875 16.804688 16.851562 16.949219 16.855469 C 17.089844 16.855469 17.207031 16.808594 17.308594 16.710938 L 27.988281 5.769531 L 27.988281 9.835938 C 27.988281 9.96875 28.035156 10.082031 28.128906 10.175781 C 28.222656 10.269531 28.339844 10.3125 28.472656 10.3125 C 28.605469 10.3125 28.71875 10.269531 28.8125 10.175781 C 28.90625 10.082031 28.953125 9.96875 28.953125 9.835938 L 28.953125 4.675781 C 28.953125 4.542969 28.90625 4.429688 28.8125 4.335938 C 28.71875 4.242188 28.605469 4.195312 28.472656 4.195312 L 23.253906 4.195312 C 23.121094 4.195312 23.007812 4.242188 22.914062 4.335938 C 22.820312 4.429688 22.773438 4.542969 22.773438 4.675781 C 22.773438 4.804688 22.820312 4.917969 22.914062 5.011719 C 23.007812 5.105469 23.121094 5.152344 23.253906 5.152344 L 27.238281 5.152344 L 16.976562 15.664062 L 13.273438 11.460938 C 13.179688 11.355469 13.058594 11.300781 12.914062 11.296875 C 12.765625 11.285156 12.648438 11.335938 12.554688 11.449219 L 5.816406 18.640625 C 5.671875 18.792969 5.644531 18.964844 5.726562 19.15625 C 5.8125 19.347656 5.960938 19.445312 6.171875 19.445312 Z M 6.171875 19.445312 " fill-opacity="1" fill-rule="nonzero"/><g clip-path="url(#d3ce719359)"><path fill="#3366a9" d="M 33.074219 32.589844 L 1.515625 32.589844 L 1.515625 30.722656 L 3.664062 30.722656 C 3.796875 30.722656 3.910156 30.675781 4.003906 30.582031 C 4.097656 30.488281 4.148438 30.375 4.148438 30.242188 C 4.148438 30.113281 4.097656 30 4.003906 29.90625 C 3.910156 29.8125 3.796875 29.765625 3.664062 29.765625 L 1.515625 29.765625 L 1.515625 25.640625 L 3.664062 25.640625 C 3.796875 25.640625 3.910156 25.59375 4.003906 25.503906 C 4.097656 25.410156 4.148438 25.296875 4.148438 25.164062 C 4.148438 25.03125 4.097656 24.921875 4.003906 24.828125 C 3.910156 24.734375 3.796875 24.6875 3.664062 24.6875 L 1.515625 24.6875 L 1.515625 20.539062 L 3.664062 20.539062 C 3.796875 20.539062 3.910156 20.492188 4.003906 20.402344 C 4.097656 20.308594 4.148438 20.195312 4.148438 20.0625 C 4.148438 19.929688 4.097656 19.820312 4.003906 19.726562 C 3.910156 19.632812 3.796875 19.585938 3.664062 19.585938 L 1.515625 19.585938 L 1.515625 15.445312 L 3.664062 15.445312 C 3.796875 15.445312 3.910156 15.398438 4.003906 15.308594 C 4.097656 15.214844 4.148438 15.101562 4.148438 14.96875 C 4.148438 14.835938 4.097656 14.722656 4.003906 14.632812 C 3.910156 14.539062 3.796875 14.492188 3.664062 14.492188 L 1.515625 14.492188 L 1.515625 10.355469 L 3.664062 10.355469 C 3.796875 10.355469 3.910156 10.308594 4.003906 10.214844 C 4.097656 10.125 4.148438 10.011719 4.148438 9.878906 C 4.148438 9.746094 4.097656 9.632812 4.003906 9.539062 C 3.910156 9.449219 3.796875 9.402344 3.664062 9.402344 L 1.515625 9.402344 L 1.515625 5.265625 L 3.664062 5.265625 C 3.796875 5.265625 3.910156 5.21875 4.003906 5.125 C 4.097656 5.03125 4.148438 4.921875 4.148438 4.789062 C 4.148438 4.65625 4.097656 4.542969 4.003906 4.449219 C 3.910156 4.359375 3.796875 4.3125 3.664062 4.3125 L 1.515625 4.3125 L 1.515625 2.855469 C 1.515625 2.722656 1.46875 2.609375 1.375 2.515625 C 1.28125 2.421875 1.164062 2.375 1.03125 2.375 C 0.898438 2.375 0.785156 2.421875 0.691406 2.515625 C 0.597656 2.609375 0.550781 2.722656 0.550781 2.855469 L 0.550781 33.066406 C 0.550781 33.199219 0.597656 33.3125 0.691406 33.40625 C 0.785156 33.5 0.898438 33.546875 1.03125 33.546875 L 33.074219 33.546875 C 33.207031 33.546875 33.320312 33.5 33.414062 33.40625 C 33.507812 33.3125 33.558594 33.199219 33.558594 33.066406 C 33.558594 32.933594 33.507812 32.824219 33.414062 32.730469 C 33.320312 32.636719 33.207031 32.589844 33.074219 32.589844 Z M 33.074219 32.589844 " fill-opacity="1" fill-rule="nonzero"/></g><g clip-path="url(#ed4553debc)"><path fill="#3466a9" d="M 15.257812 10.398438 C 12.910156 10.398438 11.007812 8.492188 11.007812 6.144531 C 11.007812 3.796875 12.910156 1.894531 15.257812 1.894531 C 17.609375 1.894531 19.511719 3.796875 19.511719 6.144531 C 19.511719 6.316406 19.652344 6.457031 19.824219 6.457031 C 19.996094 6.457031 20.132812 6.316406 20.132812 6.144531 C 20.132812 3.453125 17.953125 1.269531 15.257812 1.269531 C 12.566406 1.269531 10.386719 3.453125 10.386719 6.144531 C 10.386719 8.835938 12.566406 11.019531 15.257812 11.019531 C 15.429688 11.019531 15.570312 10.878906 15.570312 10.707031 C 15.570312 10.539062 15.429688 10.398438 15.257812 10.398438 Z M 15.257812 10.398438 " fill-opacity="1" fill-rule="nonzero"/></g><path fill="#3466a9" d="M 14.949219 2.828125 L 14.949219 6.25 L 13.183594 6.25 C 13.011719 6.25 12.875 6.386719 12.875 6.558594 C 12.875 6.730469 13.015625 6.871094 13.183594 6.871094 L 15.257812 6.871094 C 15.429688 6.871094 15.570312 6.730469 15.570312 6.558594 L 15.570312 2.828125 C 15.570312 2.65625 15.429688 2.515625 15.257812 2.515625 C 15.085938 2.515625 14.949219 2.65625 14.949219 2.828125 Z M 14.949219 2.828125 " fill-opacity="1" fill-rule="nonzero"/><path fill="#3466a9" d="M 18.894531 7.703125 C 18.757812 7.597656 18.5625 7.625 18.460938 7.761719 L 17.46875 9.074219 L 16.765625 8.542969 C 16.628906 8.4375 16.433594 8.464844 16.328125 8.601562 C 16.226562 8.738281 16.253906 8.933594 16.390625 9.039062 L 17.339844 9.757812 C 17.476562 9.859375 17.671875 9.835938 17.777344 9.695312 L 18.957031 8.136719 C 19.058594 8 19.03125 7.804688 18.894531 7.703125 Z M 18.894531 7.703125 " fill-opacity="1" fill-rule="nonzero"/><g clip-path="url(#5106966bbb)"><path fill="#3466a9" d="M 17.75 6.25 C 16.429688 6.25 15.363281 7.316406 15.363281 8.632812 C 15.363281 9.953125 16.429688 11.019531 17.75 11.019531 C 19.066406 11.019531 20.132812 9.953125 20.132812 8.632812 C 20.132812 7.316406 19.066406 6.25 17.75 6.25 Z M 17.75 10.398438 C 16.773438 10.398438 15.984375 9.609375 15.984375 8.632812 C 15.984375 7.660156 16.773438 6.871094 17.75 6.871094 C 18.722656 6.871094 19.511719 7.660156 19.511719 8.632812 C 19.511719 9.609375 18.722656 10.398438 17.75 10.398438 Z M 17.75 10.398438 " fill-opacity="1" fill-rule="nonzero"/></g></svg>