<svg xmlns="http://www.w3.org/2000/svg" xmlns:xlink="http://www.w3.org/1999/xlink" width="40" zoomAndPan="magnify" viewBox="0 0 30 30.000001" height="40" preserveAspectRatio="xMidYMid meet" version="1.0"><defs><clipPath id="3f2c5442be"><path d="M 19 15 L 29.332031 15 L 29.332031 27 L 19 27 Z M 19 15 " clip-rule="nonzero"/></clipPath><clipPath id="8b87b6e19d"><path d="M 1.023438 15 L 12 15 L 12 27 L 1.023438 27 Z M 1.023438 15 " clip-rule="nonzero"/></clipPath><clipPath id="0f66fb5fba"><path d="M 10 1.230469 L 21 1.230469 L 21 12 L 10 12 Z M 10 1.230469 " clip-rule="nonzero"/></clipPath><clipPath id="570aa55fd4"><path d="M 10.398438 25.378906 L 19.957031 25.378906 L 19.957031 28.085938 L 10.398438 28.085938 Z M 10.398438 25.378906 " clip-rule="nonzero"/></clipPath></defs><path fill="#3366a9" d="M 20.121094 6.988281 C 20.238281 6.78125 20.5 6.710938 20.703125 6.832031 C 23.515625 8.511719 25.429688 11.347656 25.957031 14.605469 C 25.996094 14.84375 25.835938 15.066406 25.605469 15.105469 C 25.582031 15.109375 25.558594 15.113281 25.535156 15.113281 C 25.328125 15.113281 25.148438 14.960938 25.113281 14.746094 C 24.628906 11.742188 22.863281 9.132812 20.273438 7.582031 C 20.070312 7.460938 20 7.195312 20.121094 6.988281 Z M 19.996094 8.054688 C 22.453125 9.523438 24.121094 11.992188 24.582031 14.835938 C 24.65625 15.316406 25.058594 15.660156 25.535156 15.660156 C 25.589844 15.660156 25.644531 15.65625 25.691406 15.648438 C 25.945312 15.605469 26.171875 15.464844 26.320312 15.25 C 26.472656 15.039062 26.53125 14.777344 26.488281 14.519531 C 25.9375 11.097656 23.929688 8.121094 20.976562 6.359375 C 20.828125 6.269531 20.660156 6.222656 20.488281 6.222656 C 20.148438 6.222656 19.828125 6.40625 19.652344 6.707031 C 19.523438 6.933594 19.488281 7.199219 19.550781 7.453125 C 19.617188 7.707031 19.777344 7.921875 19.996094 8.054688 " fill-opacity="1" fill-rule="nonzero"/><g clip-path="url(#3f2c5442be)"><path fill="#3366a9" d="M 28.425781 25.136719 C 28.164062 25.496094 27.761719 25.703125 27.320312 25.703125 L 21.21875 25.703125 C 20.773438 25.703125 20.371094 25.496094 20.109375 25.136719 C 19.847656 24.777344 19.773438 24.324219 19.90625 23.894531 C 20.1875 22.964844 20.765625 22.132812 21.535156 21.546875 C 21.886719 21.277344 22.269531 21.066406 22.675781 20.914062 C 22.109375 20.441406 21.75 19.726562 21.75 18.925781 C 21.75 17.515625 22.878906 16.363281 24.269531 16.363281 C 25.660156 16.363281 26.789062 17.515625 26.789062 18.925781 C 26.789062 19.726562 26.425781 20.441406 25.859375 20.914062 C 26.265625 21.066406 26.648438 21.277344 27.003906 21.546875 C 27.769531 22.132812 28.347656 22.964844 28.632812 23.894531 C 28.761719 24.324219 28.6875 24.777344 28.425781 25.136719 Z M 29.148438 23.730469 C 28.832031 22.695312 28.1875 21.761719 27.328125 21.109375 C 27.148438 20.96875 26.957031 20.84375 26.761719 20.734375 C 27.128906 20.210938 27.328125 19.582031 27.328125 18.925781 C 27.328125 17.210938 25.957031 15.8125 24.269531 15.8125 C 22.582031 15.8125 21.207031 17.210938 21.207031 18.925781 C 21.207031 19.582031 21.410156 20.210938 21.777344 20.734375 C 21.578125 20.84375 21.390625 20.96875 21.210938 21.109375 C 20.351562 21.761719 19.703125 22.695312 19.390625 23.730469 C 19.207031 24.328125 19.3125 24.960938 19.675781 25.464844 C 20.039062 25.964844 20.601562 26.253906 21.21875 26.253906 L 27.320312 26.253906 C 27.9375 26.253906 28.5 25.964844 28.863281 25.464844 C 29.226562 24.960938 29.332031 24.332031 29.148438 23.730469 " fill-opacity="1" fill-rule="nonzero"/></g><path fill="#3366a9" d="M 24.269531 21.492188 C 22.628906 21.492188 21.203125 22.558594 20.71875 24.152344 C 20.671875 24.316406 20.699219 24.488281 20.796875 24.621094 C 20.894531 24.757812 21.046875 24.835938 21.21875 24.835938 L 27.320312 24.835938 C 27.488281 24.835938 27.640625 24.757812 27.738281 24.621094 C 27.839844 24.488281 27.867188 24.316406 27.816406 24.152344 C 27.332031 22.558594 25.90625 21.492188 24.269531 21.492188 " fill-opacity="1" fill-rule="nonzero"/><path fill="#3366a9" d="M 24.269531 20.625 C 25.1875 20.621094 25.933594 19.863281 25.933594 18.925781 C 25.933594 17.992188 25.1875 17.230469 24.269531 17.230469 C 23.351562 17.230469 22.601562 17.992188 22.601562 18.925781 C 22.601562 19.863281 23.347656 20.621094 24.269531 20.625 " fill-opacity="1" fill-rule="nonzero"/><path fill="#3366a9" d="M 9.652344 6.832031 C 9.855469 6.710938 10.117188 6.78125 10.238281 6.988281 C 10.355469 7.195312 10.289062 7.460938 10.085938 7.582031 C 7.492188 9.132812 5.726562 11.742188 5.242188 14.75 C 5.207031 14.960938 5.027344 15.113281 4.820312 15.113281 C 4.800781 15.113281 4.777344 15.109375 4.753906 15.105469 C 4.519531 15.066406 4.363281 14.84375 4.402344 14.609375 C 4.925781 11.347656 6.839844 8.511719 9.652344 6.832031 Z M 4.65625 15.648438 C 4.710938 15.65625 4.769531 15.660156 4.820312 15.660156 C 5.296875 15.660156 5.699219 15.316406 5.777344 14.835938 C 6.234375 11.996094 7.90625 9.523438 10.359375 8.054688 C 10.582031 7.921875 10.738281 7.707031 10.804688 7.453125 C 10.871094 7.199219 10.832031 6.933594 10.703125 6.707031 C 10.53125 6.410156 10.210938 6.222656 9.867188 6.222656 C 9.695312 6.222656 9.527344 6.269531 9.378906 6.359375 C 6.429688 8.121094 4.417969 11.097656 3.867188 14.519531 C 3.824219 14.777344 3.882812 15.039062 4.035156 15.25 C 4.1875 15.464844 4.410156 15.605469 4.65625 15.648438 " fill-opacity="1" fill-rule="nonzero"/><path fill="#3366a9" d="M 6.085938 20.625 C 6.085938 20.625 6.085938 20.625 6.089844 20.625 C 7.007812 20.621094 7.753906 19.863281 7.753906 18.925781 C 7.753906 17.992188 7.007812 17.230469 6.089844 17.230469 C 5.167969 17.230469 4.421875 17.992188 4.421875 18.925781 C 4.421875 19.863281 5.167969 20.621094 6.085938 20.625 " fill-opacity="1" fill-rule="nonzero"/><path fill="#3366a9" d="M 6.089844 21.492188 L 6.085938 21.492188 C 4.449219 21.492188 3.023438 22.558594 2.539062 24.152344 C 2.488281 24.316406 2.519531 24.488281 2.617188 24.621094 C 2.714844 24.757812 2.867188 24.835938 3.035156 24.835938 L 9.140625 24.835938 C 9.308594 24.835938 9.460938 24.757812 9.558594 24.621094 C 9.65625 24.488281 9.6875 24.316406 9.636719 24.152344 C 9.152344 22.558594 7.726562 21.492188 6.089844 21.492188 " fill-opacity="1" fill-rule="nonzero"/><g clip-path="url(#8b87b6e19d)"><path fill="#3366a9" d="M 10.246094 25.136719 C 9.984375 25.496094 9.582031 25.703125 9.140625 25.703125 L 3.035156 25.703125 C 2.59375 25.703125 2.191406 25.496094 1.929688 25.136719 C 1.667969 24.777344 1.59375 24.324219 1.726562 23.894531 C 2.007812 22.964844 2.585938 22.132812 3.351562 21.546875 C 3.707031 21.277344 4.089844 21.066406 4.496094 20.914062 C 3.929688 20.441406 3.566406 19.726562 3.566406 18.925781 C 3.566406 17.515625 4.699219 16.363281 6.089844 16.363281 C 7.476562 16.363281 8.609375 17.515625 8.609375 18.925781 C 8.609375 19.726562 8.246094 20.441406 7.679688 20.914062 C 8.085938 21.066406 8.46875 21.277344 8.824219 21.546875 C 9.589844 22.132812 10.167969 22.964844 10.449219 23.894531 C 10.582031 24.324219 10.507812 24.777344 10.246094 25.136719 Z M 10.96875 23.730469 C 10.652344 22.695312 10.003906 21.761719 9.148438 21.109375 C 8.964844 20.96875 8.777344 20.84375 8.582031 20.734375 C 8.945312 20.210938 9.148438 19.582031 9.148438 18.925781 C 9.148438 17.210938 7.777344 15.8125 6.089844 15.8125 C 4.402344 15.8125 3.027344 17.210938 3.027344 18.925781 C 3.027344 19.582031 3.230469 20.210938 3.59375 20.734375 C 3.398438 20.84375 3.210938 20.96875 3.027344 21.109375 C 2.171875 21.761719 1.523438 22.695312 1.207031 23.730469 C 1.027344 24.328125 1.128906 24.960938 1.496094 25.464844 C 1.859375 25.964844 2.421875 26.253906 3.035156 26.253906 L 9.140625 26.253906 C 9.753906 26.253906 10.316406 25.964844 10.679688 25.464844 C 11.046875 24.960938 11.148438 24.328125 10.96875 23.730469 " fill-opacity="1" fill-rule="nonzero"/></g><path fill="#3366a9" d="M 15.175781 6.042969 C 15.175781 6.042969 15.179688 6.042969 15.179688 6.042969 C 16.097656 6.042969 16.84375 5.28125 16.84375 4.347656 C 16.84375 3.414062 16.097656 2.652344 15.179688 2.652344 C 14.257812 2.652344 13.511719 3.414062 13.511719 4.347656 C 13.511719 5.28125 14.257812 6.042969 15.175781 6.042969 " fill-opacity="1" fill-rule="nonzero"/><path fill="#3366a9" d="M 11.707031 10.042969 C 11.804688 10.179688 11.957031 10.257812 12.125 10.257812 L 18.230469 10.257812 C 18.398438 10.257812 18.550781 10.179688 18.648438 10.042969 C 18.75 9.90625 18.777344 9.734375 18.726562 9.570312 C 18.242188 7.980469 16.816406 6.910156 15.179688 6.910156 L 15.175781 6.910156 C 13.539062 6.910156 12.113281 7.980469 11.628906 9.570312 C 11.582031 9.734375 11.609375 9.90625 11.707031 10.042969 " fill-opacity="1" fill-rule="nonzero"/><g clip-path="url(#0f66fb5fba)"><path fill="#3366a9" d="M 13.585938 6.332031 C 13.019531 5.863281 12.660156 5.148438 12.660156 4.347656 C 12.660156 2.933594 13.789062 1.785156 15.179688 1.785156 C 16.566406 1.785156 17.699219 2.933594 17.699219 4.347656 C 17.699219 5.148438 17.335938 5.863281 16.769531 6.332031 C 17.175781 6.488281 17.558594 6.699219 17.914062 6.96875 C 18.679688 7.554688 19.257812 8.386719 19.542969 9.3125 C 19.671875 9.742188 19.597656 10.199219 19.335938 10.558594 C 19.074219 10.917969 18.671875 11.125 18.230469 11.125 L 12.125 11.125 C 11.683594 11.125 11.28125 10.917969 11.019531 10.558594 C 10.757812 10.199219 10.683594 9.742188 10.816406 9.3125 C 11.097656 8.386719 11.675781 7.554688 12.445312 6.96875 C 12.796875 6.699219 13.179688 6.488281 13.585938 6.332031 Z M 10.300781 9.152344 C 10.117188 9.75 10.222656 10.382812 10.585938 10.882812 C 10.949219 11.386719 11.511719 11.675781 12.125 11.675781 L 18.230469 11.675781 C 18.84375 11.675781 19.40625 11.386719 19.769531 10.882812 C 20.136719 10.382812 20.238281 9.75 20.058594 9.152344 C 19.742188 8.113281 19.09375 7.183594 18.238281 6.527344 C 18.054688 6.390625 17.867188 6.265625 17.671875 6.152344 C 18.039062 5.632812 18.238281 5.003906 18.238281 4.347656 C 18.238281 2.628906 16.867188 1.234375 15.179688 1.234375 C 13.492188 1.234375 12.117188 2.628906 12.117188 4.347656 C 12.117188 5.003906 12.320312 5.632812 12.683594 6.152344 C 12.488281 6.265625 12.300781 6.390625 12.121094 6.527344 C 11.261719 7.183594 10.613281 8.113281 10.300781 9.152344 " fill-opacity="1" fill-rule="nonzero"/></g><g clip-path="url(#570aa55fd4)"><path fill="#3366a9" d="M 19.101562 26.796875 C 17.851562 27.289062 16.53125 27.539062 15.179688 27.539062 C 13.824219 27.539062 12.503906 27.289062 11.253906 26.796875 C 11.035156 26.710938 10.925781 26.460938 11.007812 26.238281 C 11.09375 26.011719 11.339844 25.902344 11.5625 25.988281 C 12.714844 26.441406 13.929688 26.667969 15.179688 26.667969 C 16.425781 26.667969 17.640625 26.441406 18.796875 25.988281 C 19.015625 25.902344 19.261719 26.011719 19.347656 26.238281 C 19.429688 26.460938 19.320312 26.710938 19.101562 26.796875 Z M 18.949219 25.410156 C 18.828125 25.410156 18.714844 25.429688 18.601562 25.472656 C 17.511719 25.902344 16.359375 26.121094 15.179688 26.121094 C 14 26.121094 12.847656 25.902344 11.753906 25.472656 C 11.644531 25.429688 11.527344 25.410156 11.40625 25.410156 C 11.011719 25.410156 10.648438 25.660156 10.503906 26.039062 C 10.3125 26.546875 10.5625 27.117188 11.058594 27.3125 C 12.371094 27.828125 13.757812 28.085938 15.179688 28.085938 C 16.597656 28.085938 17.984375 27.828125 19.296875 27.3125 C 19.792969 27.117188 20.042969 26.546875 19.851562 26.039062 C 19.707031 25.65625 19.351562 25.410156 18.949219 25.410156 " fill-opacity="1" fill-rule="nonzero"/></g></svg>