<svg xmlns="http://www.w3.org/2000/svg" xmlns:xlink="http://www.w3.org/1999/xlink" width="45" zoomAndPan="magnify" viewBox="0 0 33.75 33.749999" height="45" preserveAspectRatio="xMidYMid meet" version="1.0"><defs><clipPath id="c9bfab9da9"><path d="M 17 20 L 30 20 L 30 33.5 L 17 33.5 Z M 17 20 " clip-rule="nonzero"/></clipPath><clipPath id="8999cfb58b"><path d="M 0 0 L 33.5 0 L 33.5 33.5 L 0 33.5 Z M 0 0 " clip-rule="nonzero"/></clipPath></defs><g clip-path="url(#c9bfab9da9)"><path fill="#ffffff" d="M 28.132812 22.5 L 27.007812 22.5 L 27.007812 23.625 L 24.195312 23.625 L 24.195312 20.25 L 23.070312 20.25 L 23.070312 23.625 L 20.257812 23.625 L 20.257812 22.5 L 19.132812 22.5 L 19.132812 23.625 L 17.445312 23.625 L 17.445312 24.75 L 19.132812 24.75 L 19.132812 25.875 L 18.570312 25.875 C 18.261719 25.875 18.007812 26.128906 18.007812 26.4375 L 18.007812 33.1875 C 18.007812 33.496094 18.261719 33.75 18.570312 33.75 L 28.695312 33.75 C 29.003906 33.75 29.257812 33.496094 29.257812 33.1875 L 29.257812 26.4375 C 29.257812 26.128906 29.003906 25.875 28.695312 25.875 L 28.132812 25.875 L 28.132812 24.75 L 29.820312 24.75 L 29.820312 23.625 L 28.132812 23.625 Z M 20.257812 24.75 L 23.070312 24.75 L 23.070312 25.875 L 20.257812 25.875 Z M 24.757812 32.625 L 22.507812 32.625 L 22.507812 29.8125 L 24.757812 29.8125 Z M 28.132812 32.625 L 25.882812 32.625 L 25.882812 29.25 C 25.882812 28.941406 25.628906 28.6875 25.320312 28.6875 L 21.945312 28.6875 C 21.636719 28.6875 21.382812 28.941406 21.382812 29.25 L 21.382812 32.625 L 19.132812 32.625 L 19.132812 27 L 28.132812 27 Z M 27.007812 25.875 L 24.195312 25.875 L 24.195312 24.75 L 27.007812 24.75 Z M 27.007812 25.875 " fill-opacity="1" fill-rule="nonzero"/></g><g clip-path="url(#8999cfb58b)"><path fill="#ffffff" d="M 33.453125 19.765625 L 29.257812 17.246094 L 29.257812 12.9375 L 29.820312 12.9375 C 30.128906 12.9375 30.382812 12.683594 30.382812 12.375 L 30.382812 10.6875 L 30.945312 10.6875 C 31.253906 10.6875 31.507812 10.433594 31.507812 10.125 L 31.507812 6.75 C 31.507812 6.441406 31.253906 6.1875 30.945312 6.1875 L 27.652344 6.1875 L 8.050781 0.0273438 C 8.03125 0.0195312 8 0.015625 7.972656 0.0078125 C 7.972656 0.0078125 7.964844 0.0078125 7.964844 0.0078125 C 7.9375 0 7.917969 0 7.890625 0 C 7.890625 0 7.882812 0 7.882812 0 C 7.875 0 7.867188 0 7.867188 0 C 7.847656 0 7.824219 0 7.804688 0.0078125 C 7.796875 0.0078125 7.785156 0.0078125 7.777344 0.015625 C 7.753906 0.0195312 7.734375 0.0195312 7.714844 0.0273438 C 7.707031 0.0273438 7.699219 0.0273438 7.691406 0.0351562 C 7.664062 0.0429688 7.644531 0.0546875 7.613281 0.0703125 C 7.609375 0.0703125 7.609375 0.078125 7.601562 0.078125 C 7.578125 0.0898438 7.566406 0.0976562 7.542969 0.113281 C 7.539062 0.121094 7.53125 0.125 7.523438 0.125 C 7.515625 0.132812 7.507812 0.140625 7.496094 0.148438 L 0.914062 6.1875 L 0.570312 6.1875 C 0.261719 6.1875 0.0078125 6.441406 0.0078125 6.75 L 0.0078125 13.5 C 0.0078125 13.808594 0.261719 14.0625 0.570312 14.0625 L 3.945312 14.0625 C 4.253906 14.0625 4.507812 13.808594 4.507812 13.5 L 4.507812 10.6875 L 5.632812 10.6875 L 5.632812 29.25 L 3.945312 29.25 C 3.636719 29.25 3.382812 29.503906 3.382812 29.8125 L 3.382812 33.1875 C 3.382812 33.496094 3.636719 33.75 3.945312 33.75 L 11.820312 33.75 C 12.128906 33.75 12.382812 33.496094 12.382812 33.1875 L 12.382812 29.8125 C 12.382812 29.503906 12.128906 29.25 11.820312 29.25 L 10.132812 29.25 L 10.132812 10.6875 L 27.007812 10.6875 L 27.007812 12.375 C 27.007812 12.683594 27.261719 12.9375 27.570312 12.9375 L 28.132812 12.9375 L 28.132812 16.574219 L 25.015625 14.703125 C 24.792969 14.570312 24.511719 14.605469 24.328125 14.785156 L 22.640625 16.472656 C 22.519531 16.59375 22.457031 16.769531 22.480469 16.9375 C 22.5 17.105469 22.597656 17.261719 22.746094 17.351562 L 31.183594 22.414062 C 31.273438 22.472656 31.375 22.492188 31.472656 22.492188 C 31.621094 22.492188 31.761719 22.4375 31.871094 22.332031 L 33.558594 20.644531 C 33.679688 20.523438 33.742188 20.347656 33.722656 20.179688 C 33.707031 20.011719 33.609375 19.855469 33.453125 19.765625 Z M 29.257812 11.8125 L 28.132812 11.8125 L 28.132812 10.6875 L 29.257812 10.6875 Z M 8.527344 5.0625 L 7.242188 5.0625 L 7.890625 2.699219 Z M 7.882812 6.1875 L 8.5625 6.1875 C 9.273438 6.1875 9.878906 6.664062 10.070312 7.3125 L 7.882812 7.3125 Z M 11.222656 7.3125 L 12.710938 7.3125 L 11.257812 8.769531 L 11.257812 7.761719 C 11.257812 7.609375 11.242188 7.460938 11.222656 7.3125 Z M 28.132812 7.3125 L 29.585938 7.3125 L 28.132812 8.769531 Z M 24.757812 7.3125 L 26.210938 7.3125 L 24.757812 8.769531 Z M 21.382812 7.3125 L 22.835938 7.3125 L 21.382812 8.769531 Z M 18.007812 7.3125 L 19.460938 7.3125 L 18.007812 8.769531 Z M 14.632812 7.3125 L 16.085938 7.3125 L 14.632812 8.769531 Z M 13.507812 8.105469 L 13.507812 9.5625 L 12.050781 9.5625 Z M 16.882812 8.105469 L 16.882812 9.5625 L 15.425781 9.5625 Z M 20.257812 8.105469 L 20.257812 9.5625 L 18.800781 9.5625 Z M 23.632812 8.105469 L 23.632812 9.5625 L 22.175781 9.5625 Z M 27.007812 8.105469 L 27.007812 9.5625 L 25.550781 9.5625 Z M 28.925781 9.5625 L 30.382812 8.105469 L 30.382812 9.5625 Z M 10.75 6.1875 C 10.496094 5.835938 10.160156 5.546875 9.773438 5.351562 L 8.699219 1.40625 L 23.90625 6.1875 Z M 6.828125 2.292969 L 6.074219 5.0625 L 5.070312 5.0625 C 4.761719 5.0625 4.507812 5.316406 4.507812 5.625 L 4.507812 6.1875 L 2.582031 6.1875 Z M 1.132812 7.3125 L 2.257812 7.3125 L 2.257812 9.5625 L 1.132812 9.5625 Z M 3.382812 7.3125 L 4.507812 7.3125 L 4.507812 9.5625 L 3.382812 9.5625 Z M 3.382812 12.9375 L 1.132812 12.9375 L 1.132812 10.6875 L 3.382812 10.6875 Z M 8.210938 10.6875 L 6.757812 12.144531 L 6.757812 10.6875 Z M 9.007812 22.5 L 7.550781 22.5 L 9.007812 21.042969 Z M 6.757812 20.25 L 8.210938 20.25 L 6.757812 21.707031 Z M 6.757812 16.875 L 8.210938 16.875 L 6.757812 18.332031 Z M 6.757812 23.625 L 8.210938 23.625 L 6.757812 25.082031 Z M 9.007812 19.125 L 7.550781 19.125 L 9.007812 17.667969 Z M 9.007812 15.75 L 7.75 15.75 L 9.007812 14.703125 Z M 6.757812 15.109375 L 6.757812 14.0625 L 8.015625 14.0625 Z M 6.757812 27 L 8.210938 27 L 6.757812 28.457031 Z M 7.550781 25.875 L 9.007812 24.417969 L 9.007812 25.875 Z M 9.007812 12.9375 L 7.550781 12.9375 L 9.007812 11.480469 Z M 11.257812 32.625 L 4.507812 32.625 L 4.507812 30.375 L 11.257812 30.375 Z M 7.550781 29.25 L 9.007812 27.792969 L 9.007812 29.25 Z M 5.632812 9.5625 L 5.632812 6.1875 L 6.757812 6.1875 L 6.757812 7.875 C 6.757812 8.183594 7.011719 8.4375 7.320312 8.4375 L 10.132812 8.4375 L 10.132812 9.5625 Z M 31.394531 21.226562 L 23.949219 16.761719 L 24.8125 15.898438 L 32.257812 20.363281 Z M 31.394531 21.226562 " fill-opacity="1" fill-rule="nonzero"/></g></svg>