<svg xmlns="http://www.w3.org/2000/svg" xmlns:xlink="http://www.w3.org/1999/xlink" width="45" zoomAndPan="magnify" viewBox="0 0 33.75 33.749999" height="45" preserveAspectRatio="xMidYMid meet" version="1.0"><defs><clipPath id="3e8f1da204"><path d="M 1.179688 0 L 32.679688 0 L 32.679688 33.5 L 1.179688 33.5 Z M 1.179688 0 " clip-rule="nonzero"/></clipPath></defs><g clip-path="url(#3e8f1da204)"><path fill="#ffffff" d="M 31.558594 18.273438 L 27.125 18.273438 L 27.125 0.695312 C 27.125 0.503906 27.058594 0.339844 26.921875 0.203125 C 26.785156 0.0664062 26.621094 0 26.425781 0 L 7.023438 0 C 6.832031 0 6.664062 0.0664062 6.527344 0.203125 C 6.394531 0.339844 6.324219 0.503906 6.324219 0.695312 L 6.324219 18.289062 L 2.292969 18.289062 C 2.089844 18.289062 1.90625 18.347656 1.738281 18.457031 C 1.570312 18.570312 1.449219 18.71875 1.371094 18.902344 C 1.296875 19.089844 1.277344 19.28125 1.316406 19.476562 C 1.355469 19.671875 1.449219 19.84375 1.589844 19.984375 C 4.910156 23.265625 12.59375 30.398438 15.542969 33.128906 C 15.707031 33.277344 15.886719 33.394531 16.09375 33.472656 C 16.296875 33.554688 16.507812 33.59375 16.730469 33.59375 C 16.949219 33.59375 17.160156 33.554688 17.363281 33.472656 C 17.570312 33.394531 17.753906 33.277344 17.914062 33.128906 L 32.230469 19.992188 C 32.382812 19.855469 32.480469 19.6875 32.527344 19.488281 C 32.574219 19.289062 32.558594 19.09375 32.484375 18.902344 C 32.410156 18.714844 32.289062 18.5625 32.117188 18.445312 C 31.949219 18.332031 31.761719 18.273438 31.558594 18.273438 Z M 16.722656 30.410156 L 6 20.628906 L 7.71875 20.628906 C 7.882812 20.628906 8.042969 20.597656 8.199219 20.53125 C 8.351562 20.46875 8.488281 20.378906 8.605469 20.257812 C 8.722656 20.140625 8.8125 20.007812 8.878906 19.851562 C 8.941406 19.699219 8.972656 19.539062 8.972656 19.371094 L 8.972656 2.882812 C 8.972656 2.742188 9.023438 2.621094 9.121094 2.519531 C 9.222656 2.421875 9.34375 2.371094 9.488281 2.371094 L 23.792969 2.371094 C 23.933594 2.371094 24.054688 2.421875 24.15625 2.523438 C 24.257812 2.621094 24.308594 2.742188 24.308594 2.882812 L 24.308594 19.308594 C 24.308594 19.484375 24.339844 19.648438 24.40625 19.808594 C 24.472656 19.96875 24.566406 20.109375 24.691406 20.234375 C 24.8125 20.355469 24.957031 20.449219 25.117188 20.515625 C 25.277344 20.582031 25.445312 20.613281 25.617188 20.613281 L 27.574219 20.613281 C 23.839844 24.273438 16.722656 30.410156 16.722656 30.410156 Z M 16.722656 30.410156 " fill-opacity="1" fill-rule="nonzero"/></g><path fill="#ffffff" d="M 18.09375 11.871094 C 18.914062 11.871094 20.691406 11.734375 20.691406 11.734375 C 20.691406 11.734375 20.484375 9.15625 18.09375 8.484375 L 18.09375 6.546875 L 15.492188 6.546875 L 15.492188 8.480469 C 12.175781 9.335938 12.644531 13.375 13.992188 14.589844 C 15.28125 15.757812 16.464844 15.527344 17.386719 15.777344 C 17.90625 16.019531 18.222656 16.449219 18.039062 17.183594 C 17.492188 18.683594 15.574219 17.726562 15.574219 16.773438 C 14.753906 16.773438 12.972656 16.910156 12.972656 16.910156 C 12.972656 16.910156 13.179688 19.429688 15.5 20.132812 L 15.5 22.089844 L 18.097656 22.089844 L 18.097656 20.175781 C 21.5 19.363281 21.035156 15.269531 19.679688 14.046875 C 19.5625 13.9375 19.4375 13.84375 19.308594 13.753906 C 18.65625 13.300781 17.933594 13.078125 17.140625 13.089844 C 16.179688 12.953125 15.359375 12.546875 15.632812 11.453125 C 16.175781 9.953125 18.09375 10.910156 18.09375 11.871094 Z M 18.09375 11.871094 " fill-opacity="1" fill-rule="nonzero"/></svg>