<?xml version="1.0" standalone="no"?>
<!DOCTYPE svg PUBLIC "-//W3C//DTD SVG 20010904//EN"
  "http://www.w3.org/TR/2001/REC-SVG-20010904/DTD/svg10.dtd">
<svg width="17" height="6">
  <circle cx="0" cy="0" r="1" fill="rgba(92.3491%,96.7422%,98.6252%,1)"/>
  <circle cx="1" cy="0" r="1" fill="rgba(64.3977%,83.621%,91.6793%,1)"/>
  <circle cx="2" cy="0" r="1" fill="rgba(74.4411%,85.8824%,90.2266%,1)"/>
  <circle cx="3" cy="0" r="1" fill="rgba(99.617%,99.6704%,99.6658%,1)"/>
  <circle cx="4" cy="0" r="1" fill="white"/>
  <circle cx="5" cy="0" r="1" fill="white"/>
  <circle cx="6" cy="0" r="1" fill="white"/>
  <circle cx="7" cy="0" r="1" fill="white"/>
  <circle cx="8" cy="0" r="1" fill="white"/>
  <circle cx="9" cy="0" r="1" fill="white"/>
  <circle cx="10" cy="0" r="1" fill="white"/>
  <circle cx="11" cy="0" r="1" fill="white"/>
  <circle cx="12" cy="0" r="1" fill="white"/>
  <circle cx="13" cy="0" r="1" fill="white"/>
  <circle cx="14" cy="0" r="1" fill="white"/>
  <circle cx="15" cy="0" r="1" fill="white"/>
  <circle cx="16" cy="0" r="1" fill="white"/>
  <circle cx="0" cy="1" r="1" fill="rgba(82.5315%,92.2652%,96.3714%,1)"/>
  <circle cx="1" cy="1" r="1" fill="rgba(23.5325%,68.2994%,87.5578%,1)"/>
  <circle cx="2" cy="1" r="1" fill="rgba(60.1526%,82.3713%,91.7525%,1)"/>
  <circle cx="3" cy="1" r="1" fill="white"/>
  <circle cx="4" cy="1" r="1" fill="white"/>
  <circle cx="5" cy="1" r="1" fill="rgba(95.2697%,96.6735%,97.4533%,1)"/>
  <circle cx="6" cy="1" r="1" fill="rgba(87.9484%,91.5343%,93.5103%,1)"/>
  <circle cx="7" cy="1" r="1" fill="rgba(91.6625%,94.1436%,95.5169%,1)"/>
  <circle cx="8" cy="1" r="1" fill="rgba(98.2025%,98.7366%,99.0356%,1)"/>
  <circle cx="9" cy="1" r="1" fill="rgba(96.527%,97.5586%,98.1338%,1)"/>
  <circle cx="10" cy="1" r="1" fill="rgba(95.2575%,96.6705%,97.4517%,1)"/>
  <circle cx="11" cy="1" r="1" fill="rgba(98.7869%,99.147%,99.3484%,1)"/>
  <circle cx="12" cy="1" r="1" fill="rgba(96.1212%,97.2732%,97.911%,1)"/>
  <circle cx="13" cy="1" r="1" fill="rgba(99.5911%,99.7131%,99.7787%,1)"/>
  <circle cx="14" cy="1" r="1" fill="rgba(97.1588%,98.0041%,98.4741%,1)"/>
  <circle cx="15" cy="1" r="1" fill="rgba(97.171%,98.0148%,98.4817%,1)"/>
  <circle cx="16" cy="1" r="1" fill="white"/>
  <circle cx="0" cy="2" r="1" fill="rgba(81.4328%,88.7465%,92.2789%,1)"/>
  <circle cx="1" cy="2" r="1" fill="rgba(17.9553%,55.5459%,73.1731%,1)"/>
  <circle cx="2" cy="2" r="1" fill="rgba(47.4556%,75.642%,88.2521%,1)"/>
  <circle cx="3" cy="2" r="1" fill="rgba(89.0272%,95.9442%,98.8907%,1)"/>
  <circle cx="4" cy="2" r="1" fill="rgba(99.7971%,100%,100%,1)"/>
  <circle cx="5" cy="2" r="1" fill="rgba(71.397%,79.8825%,84.5945%,1)"/>
  <circle cx="6" cy="2" r="1" fill="rgba(56.1837%,69.2638%,76.4492%,1)"/>
  <circle cx="7" cy="2" r="1" fill="rgba(55.0195%,68.4306%,75.8358%,1)"/>
  <circle cx="8" cy="2" r="1" fill="rgba(80.7874%,86.508%,89.6895%,1)"/>
  <circle cx="9" cy="2" r="1" fill="rgba(74.5968%,82.1653%,86.3737%,1)"/>
  <circle cx="10" cy="2" r="1" fill="rgba(57.6135%,70.2724%,77.2213%,1)"/>
  <circle cx="11" cy="2" r="1" fill="rgba(76.0037%,83.151%,87.1122%,1)"/>
  <circle cx="12" cy="2" r="1" fill="rgba(71.0796%,79.6887%,84.4511%,1)"/>
  <circle cx="13" cy="2" r="1" fill="rgba(96.2478%,97.3693%,97.9797%,1)"/>
  <circle cx="14" cy="2" r="1" fill="rgba(67.2816%,77.0291%,82.4262%,1)"/>
  <circle cx="15" cy="2" r="1" fill="rgba(67.5273%,77.1984%,82.5544%,1)"/>
  <circle cx="16" cy="2" r="1" fill="white"/>
  <circle cx="0" cy="3" r="1" fill="rgba(80.499%,86.1769%,89.3584%,1)"/>
  <circle cx="1" cy="3" r="1" fill="rgba(8.96162%,36.0143%,51.0063%,1)"/>
  <circle cx="2" cy="3" r="1" fill="rgba(12.0836%,41.6297%,57.1618%,1)"/>
  <circle cx="3" cy="3" r="1" fill="rgba(33.7392%,61.8997%,75.4864%,1)"/>
  <circle cx="4" cy="3" r="1" fill="rgba(71.8624%,86.9276%,93.7285%,1)"/>
  <circle cx="5" cy="3" r="1" fill="rgba(70.338%,78.9746%,83.9887%,1)"/>
  <circle cx="6" cy="3" r="1" fill="rgba(63.5996%,74.342%,80.3464%,1)"/>
  <circle cx="7" cy="3" r="1" fill="rgba(52.0195%,66.128%,74.0764%,1)"/>
  <circle cx="8" cy="3" r="1" fill="rgba(76.2463%,83.1403%,87.1122%,1)"/>
  <circle cx="9" cy="3" r="1" fill="rgba(70.2419%,78.7854%,83.7934%,1)"/>
  <circle cx="10" cy="3" r="1" fill="rgba(60.9522%,72.4575%,78.8754%,1)"/>
  <circle cx="11" cy="3" r="1" fill="rgba(58.2818%,70.6645%,77.5631%,1)"/>
  <circle cx="12" cy="3" r="1" fill="rgba(55.5367%,68.4031%,75.816%,1)"/>
  <circle cx="13" cy="3" r="1" fill="rgba(86.6545%,90.6035%,92.8038%,1)"/>
  <circle cx="14" cy="3" r="1" fill="rgba(54.9783%,68.4031%,75.8297%,1)"/>
  <circle cx="15" cy="3" r="1" fill="rgba(50.8125%,65.4795%,73.5851%,1)"/>
  <circle cx="16" cy="3" r="1" fill="rgba(89.572%,92.6818%,94.3999%,1)"/>
  <circle cx="0" cy="4" r="1" fill="rgba(79.3988%,85.9449%,89.4316%,1)"/>
  <circle cx="1" cy="4" r="1" fill="rgba(8.748%,36.5194%,51.78%,1)"/>
  <circle cx="2" cy="4" r="1" fill="rgba(24.6036%,47.6753%,60.2182%,1)"/>
  <circle cx="3" cy="4" r="1" fill="rgba(9.42092%,37.3571%,52.4559%,1)"/>
  <circle cx="4" cy="4" r="1" fill="rgba(64.0757%,76.4431%,82.8092%,1)"/>
  <circle cx="5" cy="4" r="1" fill="rgba(75.0622%,82.594%,86.7475%,1)"/>
  <circle cx="6" cy="4" r="1" fill="rgba(60.3265%,72.1599%,78.6999%,1)"/>
  <circle cx="7" cy="4" r="1" fill="rgba(61.3199%,72.8588%,79.2294%,1)"/>
  <circle cx="8" cy="4" r="1" fill="rgba(83.1006%,88.1331%,90.9285%,1)"/>
  <circle cx="9" cy="4" r="1" fill="rgba(76.6659%,83.6225%,87.4907%,1)"/>
  <circle cx="10" cy="4" r="1" fill="rgba(73.6187%,81.5198%,85.8244%,1)"/>
  <circle cx="11" cy="4" r="1" fill="rgba(84.2756%,88.9631%,91.5541%,1)"/>
  <circle cx="12" cy="4" r="1" fill="rgba(58.6343%,70.9651%,77.7676%,1)"/>
  <circle cx="13" cy="4" r="1" fill="rgba(76.6888%,83.6378%,87.4784%,1)"/>
  <circle cx="14" cy="4" r="1" fill="rgba(74.9844%,82.446%,86.566%,1)"/>
  <circle cx="15" cy="4" r="1" fill="rgba(69.839%,78.8327%,83.8025%,1)"/>
  <circle cx="16" cy="4" r="1" fill="rgba(77.052%,83.8956%,87.6738%,1)"/>
  <circle cx="0" cy="5" r="1" fill="rgba(72.3674%,86.5858%,92.3369%,1)"/>
  <circle cx="1" cy="5" r="1" fill="rgba(32.256%,63.8254%,77.2824%,1)"/>
  <circle cx="2" cy="5" r="1" fill="rgba(37.8058%,68.2887%,80.9033%,1)"/>
  <circle cx="3" cy="5" r="1" fill="rgba(32.1965%,65.1682%,78.8693%,1)"/>
  <circle cx="4" cy="5" r="1" fill="rgba(62.771%,83.0182%,90.9453%,1)"/>
  <circle cx="5" cy="5" r="1" fill="rgba(97.229%,98.3261%,98.8403%,1)"/>
  <circle cx="6" cy="5" r="1" fill="rgba(92.2911%,94.5693%,95.8465%,1)"/>
  <circle cx="7" cy="5" r="1" fill="rgba(95.0225%,96.5072%,97.3281%,1)"/>
  <circle cx="8" cy="5" r="1" fill="rgba(99.1943%,99.4339%,99.5682%,1)"/>
  <circle cx="9" cy="5" r="1" fill="rgba(98.1613%,98.7106%,99.0158%,1)"/>
  <circle cx="10" cy="5" r="1" fill="rgba(97.9171%,98.5428%,98.883%,1)"/>
  <circle cx="11" cy="5" r="1" fill="rgba(99.5041%,99.6536%,99.7345%,1)"/>
  <circle cx="12" cy="5" r="1" fill="rgba(97.5433%,98.2742%,98.6801%,1)"/>
  <circle cx="13" cy="5" r="1" fill="rgba(97.2793%,98.0896%,98.5397%,1)"/>
  <circle cx="14" cy="5" r="1" fill="rgba(99.2264%,99.4568%,99.585%,1)"/>
  <circle cx="15" cy="5" r="1" fill="rgba(99.1852%,99.4278%,99.5621%,1)"/>
  <circle cx="16" cy="5" r="1" fill="rgba(97.2732%,98.0865%,98.5382%,1)"/>
</svg>
