<?xml version="1.0" standalone="no"?>
<!DOCTYPE svg PUBLIC "-//W3C//DTD SVG 20010904//EN"
  "http://www.w3.org/TR/2001/REC-SVG-20010904/DTD/svg10.dtd">
<svg width="17" height="7">
  <circle cx="0" cy="0" r="1" fill="white"/>
  <circle cx="1" cy="0" r="1" fill="rgba(62.6535%,85.1377%,94.8928%,1)"/>
  <circle cx="2" cy="0" r="1" fill="rgba(33.4691%,71.0292%,87.0146%,1)"/>
  <circle cx="3" cy="0" r="1" fill="rgba(88.6091%,94.0505%,96.1975%,1)"/>
  <circle cx="4" cy="0" r="1" fill="white"/>
  <circle cx="5" cy="0" r="1" fill="white"/>
  <circle cx="6" cy="0" r="1" fill="rgba(99.6002%,99.7192%,99.7864%,1)"/>
  <circle cx="7" cy="0" r="1" fill="rgba(99.1699%,99.4156%,99.556%,1)"/>
  <circle cx="8" cy="0" r="1" fill="rgba(99.8779%,99.913%,99.9344%,1)"/>
  <circle cx="9" cy="0" r="1" fill="white"/>
  <circle cx="10" cy="0" r="1" fill="white"/>
  <circle cx="11" cy="0" r="1" fill="white"/>
  <circle cx="12" cy="0" r="1" fill="white"/>
  <circle cx="13" cy="0" r="1" fill="white"/>
  <circle cx="14" cy="0" r="1" fill="white"/>
  <circle cx="15" cy="0" r="1" fill="white"/>
  <circle cx="16" cy="0" r="1" fill="white"/>
  <circle cx="0" cy="1" r="1" fill="white"/>
  <circle cx="1" cy="1" r="1" fill="rgba(55.7382%,79.0173%,89.5521%,1)"/>
  <circle cx="2" cy="1" r="1" fill="rgba(26.7308%,68.658%,87.216%,1)"/>
  <circle cx="3" cy="1" r="1" fill="rgba(88.0415%,95.6039%,98.8144%,1)"/>
  <circle cx="4" cy="1" r="1" fill="white"/>
  <circle cx="5" cy="1" r="1" fill="rgba(96.17%,97.2992%,97.9385%,1)"/>
  <circle cx="6" cy="1" r="1" fill="rgba(65.5131%,75.7824%,81.4984%,1)"/>
  <circle cx="7" cy="1" r="1" fill="rgba(64.21%,74.8806%,80.798%,1)"/>
  <circle cx="8" cy="1" r="1" fill="rgba(79.7818%,85.8015%,89.1447%,1)"/>
  <circle cx="9" cy="1" r="1" fill="rgba(83.3204%,88.3131%,91.0338%,1)"/>
  <circle cx="10" cy="1" r="1" fill="rgba(83.1785%,88.191%,90.9697%,1)"/>
  <circle cx="11" cy="1" r="1" fill="rgba(73.7972%,81.6037%,85.9251%,1)"/>
  <circle cx="12" cy="1" r="1" fill="rgba(89.398%,92.5521%,94.2962%,1)"/>
  <circle cx="13" cy="1" r="1" fill="rgba(86.038%,90.1946%,92.5032%,1)"/>
  <circle cx="14" cy="1" r="1" fill="rgba(96.6918%,97.6791%,98.2223%,1)"/>
  <circle cx="15" cy="1" r="1" fill="rgba(70.7149%,79.4415%,84.2695%,1)"/>
  <circle cx="16" cy="1" r="1" fill="rgba(95.5856%,96.8994%,97.6287%,1)"/>
  <circle cx="0" cy="2" r="1" fill="white"/>
  <circle cx="1" cy="2" r="1" fill="rgba(48.1666%,64.3122%,73.0434%,1)"/>
  <circle cx="2" cy="2" r="1" fill="rgba(7.55932%,40.0488%,56.8643%,1)"/>
  <circle cx="3" cy="2" r="1" fill="rgba(42.1363%,67.9225%,80.2152%,1)"/>
  <circle cx="4" cy="2" r="1" fill="rgba(70.4158%,86.7124%,94.0108%,1)"/>
  <circle cx="5" cy="2" r="1" fill="rgba(88.0598%,93.0449%,95.5306%,1)"/>
  <circle cx="6" cy="2" r="1" fill="rgba(56.3378%,68.9082%,76.2127%,1)"/>
  <circle cx="7" cy="2" r="1" fill="rgba(57.4777%,70.1457%,77.1664%,1)"/>
  <circle cx="8" cy="2" r="1" fill="rgba(61.8936%,73.1701%,79.4858%,1)"/>
  <circle cx="9" cy="2" r="1" fill="rgba(70.2892%,79.0341%,83.9109%,1)"/>
  <circle cx="10" cy="2" r="1" fill="rgba(72.3857%,80.3998%,85.0126%,1)"/>
  <circle cx="11" cy="2" r="1" fill="rgba(47.9698%,63.2425%,71.8883%,1)"/>
  <circle cx="12" cy="2" r="1" fill="rgba(63.6805%,74.3557%,80.3601%,1)"/>
  <circle cx="13" cy="2" r="1" fill="rgba(76.6522%,83.3478%,87.2557%,1)"/>
  <circle cx="14" cy="2" r="1" fill="rgba(79.5468%,85.6641%,89.0272%,1)"/>
  <circle cx="15" cy="2" r="1" fill="rgba(47.126%,62.9007%,71.5969%,1)"/>
  <circle cx="16" cy="2" r="1" fill="rgba(74.7646%,82.2919%,86.4302%,1)"/>
  <circle cx="0" cy="3" r="1" fill="white"/>
  <circle cx="1" cy="3" r="1" fill="rgba(46.9184%,62.2232%,70.9773%,1)"/>
  <circle cx="2" cy="3" r="1" fill="rgba(4.74403%,31.8746%,47.5929%,1)"/>
  <circle cx="3" cy="3" r="1" fill="rgba(17.7691%,42.2263%,55.8328%,1)"/>
  <circle cx="4" cy="3" r="1" fill="rgba(27.3381%,51.6457%,64.4816%,1)"/>
  <circle cx="5" cy="3" r="1" fill="rgba(84.7272%,90.7103%,93.7072%,1)"/>
  <circle cx="6" cy="3" r="1" fill="rgba(56.6598%,69.4835%,76.6552%,1)"/>
  <circle cx="7" cy="3" r="1" fill="rgba(63.6728%,74.5083%,80.5035%,1)"/>
  <circle cx="8" cy="3" r="1" fill="rgba(66.0212%,76.141%,81.7517%,1)"/>
  <circle cx="9" cy="3" r="1" fill="rgba(71.9036%,80.3128%,84.892%,1)"/>
  <circle cx="10" cy="3" r="1" fill="rgba(74.1085%,81.828%,86.1082%,1)"/>
  <circle cx="11" cy="3" r="1" fill="rgba(71.9951%,80.3449%,84.9851%,1)"/>
  <circle cx="12" cy="3" r="1" fill="rgba(54.8486%,68.304%,75.7458%,1)"/>
  <circle cx="13" cy="3" r="1" fill="rgba(69.4026%,78.5245%,83.5721%,1)"/>
  <circle cx="14" cy="3" r="1" fill="rgba(64.744%,75.2621%,81.062%,1)"/>
  <circle cx="15" cy="3" r="1" fill="rgba(63.917%,74.6868%,80.6241%,1)"/>
  <circle cx="16" cy="3" r="1" fill="rgba(52.7169%,66.8208%,74.6044%,1)"/>
  <circle cx="0" cy="4" r="1" fill="rgba(98.6236%,99.8169%,100%,1)"/>
  <circle cx="1" cy="4" r="1" fill="rgba(51.0155%,72.192%,81.5152%,1)"/>
  <circle cx="2" cy="4" r="1" fill="rgba(24.976%,55.3384%,69.2485%,1)"/>
  <circle cx="3" cy="4" r="1" fill="rgba(35.9457%,62.9496%,75.0439%,1)"/>
  <circle cx="4" cy="4" r="1" fill="rgba(32.3873%,60.1236%,72.6925%,1)"/>
  <circle cx="5" cy="4" r="1" fill="rgba(89.0455%,94.5617%,96.7864%,1)"/>
  <circle cx="6" cy="4" r="1" fill="rgba(83.83%,88.5191%,91.1849%,1)"/>
  <circle cx="7" cy="4" r="1" fill="rgba(80.1785%,86.0838%,89.3675%,1)"/>
  <circle cx="8" cy="4" r="1" fill="rgba(92.1523%,94.49%,95.7885%,1)"/>
  <circle cx="9" cy="4" r="1" fill="rgba(93.4401%,95.404%,96.4706%,1)"/>
  <circle cx="10" cy="4" r="1" fill="rgba(93.7209%,95.5901%,96.6323%,1)"/>
  <circle cx="11" cy="4" r="1" fill="rgba(94.4656%,96.1135%,97.0367%,1)"/>
  <circle cx="12" cy="4" r="1" fill="rgba(93.3211%,95.3109%,96.4157%,1)"/>
  <circle cx="13" cy="4" r="1" fill="rgba(90.901%,93.6172%,95.1217%,1)"/>
  <circle cx="14" cy="4" r="1" fill="rgba(91.6899%,94.168%,95.5383%,1)"/>
  <circle cx="15" cy="4" r="1" fill="rgba(99.4415%,99.6063%,99.6994%,1)"/>
  <circle cx="16" cy="4" r="1" fill="rgba(90.3029%,93.1914%,94.7997%,1)"/>
  <circle cx="0" cy="5" r="1" fill="rgba(99.0967%,99.6948%,99.9039%,1)"/>
  <circle cx="1" cy="5" r="1" fill="rgba(92.8099%,97.6913%,99.4018%,1)"/>
  <circle cx="2" cy="5" r="1" fill="rgba(91.1467%,97.116%,99.2172%,1)"/>
  <circle cx="3" cy="5" r="1" fill="rgba(90.7286%,96.7941%,98.9578%,1)"/>
  <circle cx="4" cy="5" r="1" fill="rgba(91.6014%,97.3297%,99.3347%,1)"/>
  <circle cx="5" cy="5" r="1" fill="rgba(97.3602%,99.1241%,99.7452%,1)"/>
  <circle cx="6" cy="5" r="1" fill="white"/>
  <circle cx="7" cy="5" r="1" fill="white"/>
  <circle cx="8" cy="5" r="1" fill="white"/>
  <circle cx="9" cy="5" r="1" fill="white"/>
  <circle cx="10" cy="5" r="1" fill="white"/>
  <circle cx="11" cy="5" r="1" fill="white"/>
  <circle cx="12" cy="5" r="1" fill="white"/>
  <circle cx="13" cy="5" r="1" fill="white"/>
  <circle cx="14" cy="5" r="1" fill="white"/>
  <circle cx="15" cy="5" r="1" fill="white"/>
  <circle cx="16" cy="5" r="1" fill="white"/>
  <circle cx="0" cy="6" r="1" fill="white"/>
  <circle cx="1" cy="6" r="1" fill="white"/>
  <circle cx="2" cy="6" r="1" fill="white"/>
  <circle cx="3" cy="6" r="1" fill="white"/>
  <circle cx="4" cy="6" r="1" fill="white"/>
  <circle cx="5" cy="6" r="1" fill="white"/>
  <circle cx="6" cy="6" r="1" fill="white"/>
  <circle cx="7" cy="6" r="1" fill="white"/>
  <circle cx="8" cy="6" r="1" fill="white"/>
  <circle cx="9" cy="6" r="1" fill="white"/>
  <circle cx="10" cy="6" r="1" fill="white"/>
  <circle cx="11" cy="6" r="1" fill="white"/>
  <circle cx="12" cy="6" r="1" fill="white"/>
  <circle cx="13" cy="6" r="1" fill="white"/>
  <circle cx="14" cy="6" r="1" fill="white"/>
  <circle cx="15" cy="6" r="1" fill="white"/>
  <circle cx="16" cy="6" r="1" fill="white"/>
</svg>
