<?xml version="1.0" standalone="no"?>
<!DOCTYPE svg PUBLIC "-//W3C//DTD SVG 20010904//EN"
  "http://www.w3.org/TR/2001/REC-SVG-20010904/DTD/svg10.dtd">
<svg width="7" height="8">
  <circle cx="0" cy="0" r="1" fill="white"/>
  <circle cx="1" cy="0" r="1" fill="rgba(71.6213%,88.7129%,96.1746%,1)"/>
  <circle cx="2" cy="0" r="1" fill="rgba(22.6444%,66.8925%,85.8534%,1)"/>
  <circle cx="3" cy="0" r="1" fill="rgba(68.4611%,84.2863%,90.6783%,1)"/>
  <circle cx="4" cy="0" r="1" fill="white"/>
  <circle cx="5" cy="0" r="1" fill="white"/>
  <circle cx="6" cy="0" r="1" fill="white"/>
  <circle cx="0" cy="1" r="1" fill="white"/>
  <circle cx="1" cy="1" r="1" fill="rgba(69.0364%,86.5949%,94.3816%,1)"/>
  <circle cx="2" cy="1" r="1" fill="rgba(19.2203%,67.1733%,88.1727%,1)"/>
  <circle cx="3" cy="1" r="1" fill="rgba(74.8425%,90.2953%,96.9146%,1)"/>
  <circle cx="4" cy="1" r="1" fill="white"/>
  <circle cx="5" cy="1" r="1" fill="white"/>
  <circle cx="6" cy="1" r="1" fill="white"/>
  <circle cx="0" cy="2" r="1" fill="white"/>
  <circle cx="1" cy="2" r="1" fill="rgba(63.4257%,75.6527%,82.1073%,1)"/>
  <circle cx="2" cy="2" r="1" fill="rgba(8.55268%,44.1352%,61.8921%,1)"/>
  <circle cx="3" cy="2" r="1" fill="rgba(44.9332%,72.3064%,84.9012%,1)"/>
  <circle cx="4" cy="2" r="1" fill="rgba(77.3861%,91.1208%,97.0977%,1)"/>
  <circle cx="5" cy="2" r="1" fill="rgba(94.0948%,97.847%,99.4614%,1)"/>
  <circle cx="6" cy="2" r="1" fill="rgba(100%,100%,99.9985%,1)"/>
  <circle cx="0" cy="3" r="1" fill="white"/>
  <circle cx="1" cy="3" r="1" fill="rgba(61.7655%,72.9885%,79.2737%,1)"/>
  <circle cx="2" cy="3" r="1" fill="rgba(0.202945%,29.3874%,45.745%,1)"/>
  <circle cx="3" cy="3" r="1" fill="rgba(11.7891%,39.2035%,54.11%,1)"/>
  <circle cx="4" cy="3" r="1" fill="rgba(26.2974%,54.0383%,68.0461%,1)"/>
  <circle cx="5" cy="3" r="1" fill="rgba(65.1774%,82.2339%,90.1244%,1)"/>
  <circle cx="6" cy="3" r="1" fill="rgba(99.4202%,99.9908%,100%,1)"/>
  <circle cx="0" cy="4" r="1" fill="white"/>
  <circle cx="1" cy="4" r="1" fill="rgba(60.8743%,72.8832%,79.5224%,1)"/>
  <circle cx="2" cy="4" r="1" fill="rgba(1.86313%,31.2474%,47.7592%,1)"/>
  <circle cx="3" cy="4" r="1" fill="rgba(33.3593%,53.6324%,64.8569%,1)"/>
  <circle cx="4" cy="4" r="1" fill="rgba(6.41794%,34.1314%,49.8177%,1)"/>
  <circle cx="5" cy="4" r="1" fill="rgba(60.415%,72.8923%,79.5789%,1)"/>
  <circle cx="6" cy="4" r="1" fill="white"/>
  <circle cx="0" cy="5" r="1" fill="rgba(99.2767%,99.9878%,100%,1)"/>
  <circle cx="1" cy="5" r="1" fill="rgba(66.0533%,84.3%,91.4549%,1)"/>
  <circle cx="2" cy="5" r="1" fill="rgba(38.5199%,67.9194%,80.1785%,1)"/>
  <circle cx="3" cy="5" r="1" fill="rgba(45.6184%,72.7459%,83.8117%,1)"/>
  <circle cx="4" cy="5" r="1" fill="rgba(39.7147%,68.7541%,80.8164%,1)"/>
  <circle cx="5" cy="5" r="1" fill="rgba(66.1448%,84.4221%,91.5846%,1)"/>
  <circle cx="6" cy="5" r="1" fill="rgba(99.2401%,99.9985%,100%,1)"/>
  <circle cx="0" cy="6" r="1" fill="rgba(89.0959%,92.3903%,94.2046%,1)"/>
  <circle cx="1" cy="6" r="1" fill="rgba(56.5774%,70.1335%,77.3983%,1)"/>
  <circle cx="2" cy="6" r="1" fill="rgba(79.2584%,86.1189%,89.5384%,1)"/>
  <circle cx="3" cy="6" r="1" fill="rgba(77.9156%,85.2903%,89.0227%,1)"/>
  <circle cx="4" cy="6" r="1" fill="rgba(85.153%,90.3197%,92.8038%,1)"/>
  <circle cx="5" cy="6" r="1" fill="rgba(75.7641%,83.6255%,87.7119%,1)"/>
  <circle cx="6" cy="6" r="1" fill="rgba(98.0682%,98.6893%,99.0173%,1)"/>
  <circle cx="0" cy="7" r="1" fill="rgba(87.599%,91.2993%,93.3486%,1)"/>
  <circle cx="1" cy="7" r="1" fill="rgba(55.169%,68.5176%,75.8877%,1)"/>
  <circle cx="2" cy="7" r="1" fill="rgba(70.9514%,79.6155%,84.3839%,1)"/>
  <circle cx="3" cy="7" r="1" fill="rgba(70.0435%,78.9456%,83.8621%,1)"/>
  <circle cx="4" cy="7" r="1" fill="rgba(64.4785%,75.0439%,80.8759%,1)"/>
  <circle cx="5" cy="7" r="1" fill="rgba(40.9827%,58.5534%,68.2673%,1)"/>
  <circle cx="6" cy="7" r="1" fill="rgba(86.1189%,90.2541%,92.5399%,1)"/>
</svg>
