<svg id="Layer_1" data-name="Layer 1" xmlns="http://www.w3.org/2000/svg" xmlns:xlink="http://www.w3.org/1999/xlink" viewBox="0 0 60 60"><defs><style>.cls-1{fill:url(#linear-gradient);}.cls-2{fill:url(#linear-gradient-2);}.cls-3{fill:none;}.cls-4{fill:url(#linear-gradient-3);}.cls-5{clip-path:url(#clip-path);}.cls-6{clip-path:url(#clip-path-2);}.cls-7{fill:url(#linear-gradient-7);}.cls-8{clip-path:url(#clip-path-3);}.cls-9{fill:url(#linear-gradient-8);}.cls-10{clip-path:url(#clip-path-4);}.cls-11{fill:url(#linear-gradient-10);}</style><linearGradient id="linear-gradient" x1="11.05" y1="4.66" x2="30.97" y2="4.66" gradientUnits="userSpaceOnUse"><stop offset="0" stop-color="#2dabe2"/><stop offset="0.22" stop-color="#2dabe2"/><stop offset="1" stop-color="#045c78"/></linearGradient><linearGradient id="linear-gradient-2" x1="17.19" y1="2.95" x2="41.73" y2="45.45" gradientUnits="userSpaceOnUse"><stop offset="0" stop-color="#045c78"/><stop offset="0.37" stop-color="#14779c"/><stop offset="1" stop-color="#34aae1"/></linearGradient><linearGradient id="linear-gradient-3" x1="6.57" y1="55.28" x2="53" y2="55.28" gradientUnits="userSpaceOnUse"><stop offset="0" stop-color="#004c76"/><stop offset="0.19" stop-color="#055f8c"/><stop offset="0.58" stop-color="#1491c3"/><stop offset="0.83" stop-color="#1db3e8"/></linearGradient><clipPath id="clip-path"><polygon class="cls-1" points="11.05 2.83 11.05 6.5 27.4 6.5 27.4 6.48 30.97 6.48 30.97 2.83 11.05 2.83"/></clipPath><clipPath id="clip-path-2"><path class="cls-2" d="M11.05,6.5V21.19L27.4,28.05V28l26,10.71h0a7,7,0,0,0-4.33-6.46L27.4,23.31V6.5Z"/></clipPath><linearGradient id="linear-gradient-7" x1="-518.69" y1="509.12" x2="-518.27" y2="508.39" gradientTransform="matrix(58.04, 0, 0, -58.04, 30125.21, 29551.04)" gradientUnits="userSpaceOnUse"><stop offset="0.05" stop-color="#004c76"/><stop offset="0.06" stop-color="#014e79"/><stop offset="0.17" stop-color="#0f6b99"/><stop offset="0.29" stop-color="#1a82b4"/><stop offset="0.41" stop-color="#2294c8"/><stop offset="0.56" stop-color="#28a1d7"/><stop offset="0.73" stop-color="#2ca9df"/><stop offset="1" stop-color="#2dabe2"/></linearGradient><clipPath id="clip-path-3"><path class="cls-3" d="M27.4,41.48l7.06,2.86v5.95H27.4Zm-16.35,12H48.43V39l-21-8.49V28.05L11.05,21.19Z"/></clipPath><linearGradient id="linear-gradient-8" x1="-518.73" y1="503.48" x2="-517.86" y2="503.74" gradientTransform="matrix(51.57, 0, 0, -51.57, 26740.72, 26013.17)" gradientUnits="userSpaceOnUse"><stop offset="0.17" stop-color="#004c76"/><stop offset="0.25" stop-color="#02507b"/><stop offset="0.34" stop-color="#085c88"/><stop offset="0.44" stop-color="#11709f"/><stop offset="0.54" stop-color="#1e8cbf"/><stop offset="0.64" stop-color="#2dabe2"/><stop offset="0.72" stop-color="#2ca8df"/><stop offset="0.78" stop-color="#279fd4"/><stop offset="0.85" stop-color="#208fc2"/><stop offset="0.91" stop-color="#1679aa"/><stop offset="0.97" stop-color="#085e8a"/><stop offset="1" stop-color="#004c76"/></linearGradient><clipPath id="clip-path-4"><polygon class="cls-4" points="11.1 53.45 11.1 53.46 6.57 53.46 6.57 57.11 53 57.11 53 53.46 48.48 53.46 48.48 53.45 11.1 53.45"/></clipPath><linearGradient id="linear-gradient-10" x1="-520.28" y1="505.65" x2="-519.54" y2="505.11" gradientTransform="matrix(73.14, 0, 0, -73.14, 38054.71, 37017.24)" xlink:href="#linear-gradient-3"/></defs><polygon class="cls-1" points="11.05 2.83 11.05 6.5 27.4 6.5 27.4 6.48 30.97 6.48 30.97 2.83 11.05 2.83"/><g class="cls-5"><rect class="cls-1" x="11.05" y="2.83" width="19.92" height="3.67"/></g><path class="cls-2" d="M11.05,6.5V21.19L27.4,28.05V28l26,10.71h0a7,7,0,0,0-4.33-6.46L27.4,23.31V6.5Z"/><g class="cls-6"><rect class="cls-7" x="11.05" y="6.5" width="42.38" height="32.2"/></g><g class="cls-8"><rect class="cls-9" x="5.08" y="12.76" width="49.32" height="49.12" transform="translate(-17.5 30.6) rotate(-43.35)"/></g><polygon class="cls-4" points="11.1 53.45 11.1 53.46 6.57 53.46 6.57 57.11 53 57.11 53 53.46 48.48 53.46 48.48 53.45 11.1 53.45"/><g class="cls-10"><rect class="cls-11" x="10" y="40.05" width="39.58" height="30.45" transform="translate(-26.96 28.38) rotate(-36.32)"/></g></svg>