<svg id="Layer_1" data-name="Layer 1" xmlns="http://www.w3.org/2000/svg" xmlns:xlink="http://www.w3.org/1999/xlink" viewBox="0 0 118.33 48.54"><defs><style>.cls-1{fill:none;}.cls-2{clip-path:url(#clip-path);}.cls-3{fill:url(#linear-gradient);}.cls-4{clip-path:url(#clip-path-2);}.cls-5{fill:url(#linear-gradient-2);}.cls-6{clip-path:url(#clip-path-3);}.cls-7{fill:url(#linear-gradient-3);}.cls-8{clip-path:url(#clip-path-4);}.cls-9{fill:url(#linear-gradient-4);}.cls-10{fill:#004c76;}</style><clipPath id="clip-path" transform="translate(3.83 -4.11)"><polygon class="cls-1" points="6.36 4.3 6.36 6.62 16.7 6.62 16.7 6.61 18.95 6.61 18.95 4.3 6.36 4.3"/></clipPath><linearGradient id="linear-gradient" x1="6.36" y1="36.54" x2="18.96" y2="36.54" gradientTransform="matrix(1, 0, 0, -1, 3.83, 37.89)" gradientUnits="userSpaceOnUse"><stop offset="0" stop-color="#2dabe2"/><stop offset="0.22" stop-color="#2dabe2"/><stop offset="1" stop-color="#045c78"/></linearGradient><clipPath id="clip-path-2" transform="translate(3.83 -4.11)"><path class="cls-1" d="M6.36,6.62v9.29L16.7,20.25h0L33.16,27h0a4.42,4.42,0,0,0-2.74-4.09L16.7,17.25V6.62Z"/></clipPath><linearGradient id="linear-gradient-2" x1="-1162.82" y1="40.03" x2="-1162.56" y2="40.49" gradientTransform="translate(67506.43 -2323.85) scale(58.04)" gradientUnits="userSpaceOnUse"><stop offset="0.05" stop-color="#004c76"/><stop offset="0.06" stop-color="#014e79"/><stop offset="0.17" stop-color="#0f6b99"/><stop offset="0.29" stop-color="#1a82b4"/><stop offset="0.41" stop-color="#2294c8"/><stop offset="0.56" stop-color="#28a1d7"/><stop offset="0.73" stop-color="#2ca9df"/><stop offset="1" stop-color="#2dabe2"/></linearGradient><clipPath id="clip-path-3" transform="translate(3.83 -4.11)"><path class="cls-1" d="M16.7,28.74l4.46,1.81v3.76H16.7ZM6.36,36.31H30V27.19L16.7,21.82V20.25L6.36,15.91Z"/></clipPath><linearGradient id="linear-gradient-3" x1="-1171.14" y1="52.42" x2="-1170.59" y2="52.25" gradientTransform="translate(60388.38 -2669.35) scale(51.57)" gradientUnits="userSpaceOnUse"><stop offset="0.17" stop-color="#004c76"/><stop offset="0.25" stop-color="#02507b"/><stop offset="0.34" stop-color="#085c88"/><stop offset="0.44" stop-color="#11709f"/><stop offset="0.54" stop-color="#1e8cbf"/><stop offset="0.64" stop-color="#2dabe2"/><stop offset="0.72" stop-color="#2ca8df"/><stop offset="0.78" stop-color="#279fd4"/><stop offset="0.85" stop-color="#208fc2"/><stop offset="0.91" stop-color="#1679aa"/><stop offset="0.97" stop-color="#085e8a"/><stop offset="1" stop-color="#004c76"/></linearGradient><clipPath id="clip-path-4" transform="translate(3.83 -4.11)"><polygon class="cls-1" points="6.39 36.31 6.39 36.32 3.52 36.32 3.52 38.63 32.89 38.63 32.89 36.32 30.03 36.32 30.03 36.31 6.39 36.31"/></clipPath><linearGradient id="linear-gradient-4" x1="-1172.24" y1="45.48" x2="-1171.77" y2="45.82" gradientTransform="translate(85735.89 -3303.47) scale(73.14)" gradientUnits="userSpaceOnUse"><stop offset="0" stop-color="#004c76"/><stop offset="0.19" stop-color="#055f8c"/><stop offset="0.58" stop-color="#1491c3"/><stop offset="0.83" stop-color="#1db3e8"/></linearGradient></defs><g class="cls-2"><rect class="cls-3" x="10.19" y="0.19" width="12.6" height="2.32"/></g><g class="cls-4"><rect class="cls-5" x="10.19" y="2.51" width="26.8" height="20.37"/></g><g class="cls-6"><rect class="cls-7" x="2.57" y="10.58" width="31.2" height="31.06" transform="translate(-9.13 15.49) rotate(-43.35)"/></g><g class="cls-8"><rect class="cls-9" x="5.69" y="27.85" width="25.03" height="19.26" transform="translate(-14.83 13.96) rotate(-36.32)"/></g><path class="cls-10" d="M38.9,13.69H51.36c2.61.18,4,1.57,4.17,4.15V19.9A2.72,2.72,0,0,1,54,22.67a2.31,2.31,0,0,1,1.52,2.51v3.74a4,4,0,0,1-4.17,4.16H38.9Zm11.53,7.58c1.55.05,2.33-.64,2.32-2v-.69a1.83,1.83,0,0,0-1.54-2.08,1.88,1.88,0,0,0-.53,0h-9V30.31h9a1.84,1.84,0,0,0,2.06-1.59,1.86,1.86,0,0,0,0-.41v-2.4c0-1.26-.82-1.88-2.47-1.88H43.22V21.27Z" transform="translate(3.83 -4.11)"/><path class="cls-10" d="M65.3,33.08H62.56V13.7H65.3Z" transform="translate(3.83 -4.11)"/><path class="cls-10" d="M85.9,28.53V13.69h2.75V33.06H85.87l-11-14.68V33.06H72V13.69h2.63Z" transform="translate(3.83 -4.11)"/><path class="cls-10" d="M93.52,33.06,103,13.75h2.1l9.4,19.33h-3.08l-2-4.14h-8.67L102,26.3h6.11L104,18.07l-7.34,15Z" transform="translate(3.83 -4.11)"/></svg>