<svg id="Layer_1" data-name="Layer 1" xmlns="http://www.w3.org/2000/svg" xmlns:xlink="http://www.w3.org/1999/xlink" viewBox="0 0 50.62 55.82"><defs><style>.cls-1{fill:none;}.cls-2{clip-path:url(#clip-path);}.cls-3{fill:url(#linear-gradient);}.cls-4{clip-path:url(#clip-path-2);}.cls-5{fill:url(#linear-gradient-2);}.cls-6{clip-path:url(#clip-path-3);}.cls-7{fill:url(#linear-gradient-3);}.cls-8{clip-path:url(#clip-path-4);}.cls-9{fill:url(#linear-gradient-4);}.cls-10{fill:#004c76;}</style><clipPath id="clip-path" transform="translate(-4.5 -2.61)"><polygon class="cls-1" points="16.21 2.83 16.21 5.5 28.11 5.5 28.11 5.49 30.7 5.49 30.7 2.83 16.21 2.83"/></clipPath><linearGradient id="linear-gradient" x1="16.21" y1="57.84" x2="30.7" y2="57.84" gradientTransform="matrix(1, 0, 0, -1, -4.5, 59.39)" gradientUnits="userSpaceOnUse"><stop offset="0" stop-color="#2dabe2"/><stop offset="0.22" stop-color="#2dabe2"/><stop offset="1" stop-color="#045c78"/></linearGradient><clipPath id="clip-path-2" transform="translate(-4.5 -2.61)"><path class="cls-1" d="M16.21,5.5V16.18l11.89,5v-.05L47,28.92h0a5.07,5.07,0,0,0-3.15-4.7L28.1,17.73V5.5Z"/></clipPath><linearGradient id="linear-gradient-2" x1="-1018.87" y1="5.77" x2="-1018.57" y2="6.31" gradientTransform="translate(59154.07 -335.66) scale(58.04)" gradientUnits="userSpaceOnUse"><stop offset="0.05" stop-color="#004c76"/><stop offset="0.06" stop-color="#014e79"/><stop offset="0.17" stop-color="#0f6b99"/><stop offset="0.29" stop-color="#1a82b4"/><stop offset="0.41" stop-color="#2294c8"/><stop offset="0.56" stop-color="#28a1d7"/><stop offset="0.73" stop-color="#2ca9df"/><stop offset="1" stop-color="#2dabe2"/></linearGradient><clipPath id="clip-path-3" transform="translate(-4.5 -2.61)"><path class="cls-1" d="M28.1,30.94,33.24,33v4.33H28.1ZM16.21,39.65H43.4V29.16L28.1,23V21.2l-11.89-5Z"/></clipPath><linearGradient id="linear-gradient-3" x1="-1026.14" y1="16.61" x2="-1025.51" y2="16.42" gradientTransform="translate(52918.9 -819.85) scale(51.57)" gradientUnits="userSpaceOnUse"><stop offset="0.17" stop-color="#004c76"/><stop offset="0.25" stop-color="#02507b"/><stop offset="0.34" stop-color="#085c88"/><stop offset="0.44" stop-color="#11709f"/><stop offset="0.54" stop-color="#1e8cbf"/><stop offset="0.64" stop-color="#2dabe2"/><stop offset="0.72" stop-color="#2ca8df"/><stop offset="0.78" stop-color="#279fd4"/><stop offset="0.85" stop-color="#208fc2"/><stop offset="0.91" stop-color="#1679aa"/><stop offset="0.97" stop-color="#085e8a"/><stop offset="1" stop-color="#004c76"/></linearGradient><clipPath id="clip-path-4" transform="translate(-4.5 -2.61)"><polygon class="cls-1" points="16.25 39.65 16.25 39.66 12.96 39.66 12.96 42.32 46.73 42.32 46.73 39.66 43.44 39.66 43.44 39.65 16.25 39.65"/></clipPath><linearGradient id="linear-gradient-4" x1="-1027.07" y1="10.51" x2="-1026.53" y2="10.91" gradientTransform="translate(75128.1 -743.91) scale(73.14)" gradientUnits="userSpaceOnUse"><stop offset="0" stop-color="#004c76"/><stop offset="0.19" stop-color="#055f8c"/><stop offset="0.58" stop-color="#1491c3"/><stop offset="0.83" stop-color="#1db3e8"/></linearGradient></defs><g class="cls-2"><rect class="cls-3" x="11.71" y="0.22" width="14.49" height="2.67"/></g><g class="cls-4"><rect class="cls-5" x="11.71" y="2.89" width="30.83" height="23.43"/></g><g class="cls-6"><rect class="cls-7" x="11.87" y="10.05" width="35.88" height="35.73" transform="translate(-15.53 25.47) rotate(-43.35)"/></g><g class="cls-8"><rect class="cls-9" x="15.45" y="29.91" width="28.79" height="22.15" transform="translate(-22.97 23.03) rotate(-36.32)"/></g><path class="cls-10" d="M11,47.42h6.26a2,2,0,0,1,2.1,1.9v1.19a1.37,1.37,0,0,1-.76,1.4,1.16,1.16,0,0,1,.76,1.26v1.88a2,2,0,0,1-1.91,2.09H11Zm5.79,3.81c.79,0,1.17-.32,1.17-1v-.35a.93.93,0,0,0-.85-1H12.39v7h4.53a.93.93,0,0,0,1-.85V53.54c0-.63-.41-.95-1.24-.95H13.17V51.23Z" transform="translate(-4.5 -2.61)"/><path class="cls-10" d="M24.27,57.17H22.89V47.43h1.38Z" transform="translate(-4.5 -2.61)"/><path class="cls-10" d="M34.62,54.88V47.42H36v9.74H34.6l-5.52-7.38v7.38H27.66V47.42H29Z" transform="translate(-4.5 -2.61)"/><path class="cls-10" d="M38.45,57.16l4.77-9.71h1.05L49,57.17H47.45l-1-2.08H42.1l.64-1.33h3.07l-2.08-4.14L40,57.16Z" transform="translate(-4.5 -2.61)"/></svg>